<?xml version="1.0" encoding="UTF-8" standalone="no"?>
<!-- Created with Inkscape (http://www.inkscape.org/) -->

<svg
   width="62"
   height="88"
   viewBox="0 0 62 88"
   version="1.1"
   id="svg5"
   xml:space="preserve"
   xmlns="http://www.w3.org/2000/svg"
   xmlns:svg="http://www.w3.org/2000/svg"><defs
     id="defs2"><rect
       x="-713.94238"
       y="53.274414"
       width="41.495117"
       height="50.939453"
       id="rect12516" /><rect
       x="-871.94531"
       y="26.289062"
       width="75.125"
       height="108.80469"
       id="rect12460" /><rect
       x="-713.94238"
       y="53.274414"
       width="41.495117"
       height="50.939453"
       id="rect12516-0" /><rect
       x="-871.94531"
       y="26.289062"
       width="75.125"
       height="108.80469"
       id="rect12460-3" /><rect
       x="-713.94238"
       y="53.274414"
       width="41.495117"
       height="50.939453"
       id="rect12516-6" /><rect
       x="-713.94238"
       y="53.274414"
       width="41.495117"
       height="50.939453"
       id="rect12516-0-8" /><rect
       x="-871.94531"
       y="26.289062"
       width="75.125"
       height="108.80469"
       id="rect12460-0" /><rect
       x="-713.94238"
       y="53.274414"
       width="41.495117"
       height="50.939453"
       id="rect12516-5" /><rect
       x="-713.94238"
       y="53.274414"
       width="41.495117"
       height="50.939453"
       id="rect12516-0-1" /><rect
       x="-871.94531"
       y="26.289062"
       width="75.125"
       height="108.80469"
       id="rect12460-5" /><rect
       x="-713.94238"
       y="53.274414"
       width="41.495117"
       height="50.939453"
       id="rect12516-06" /><rect
       x="-713.94238"
       y="53.274414"
       width="41.495117"
       height="50.939453"
       id="rect12516-0-4" /><rect
       x="-871.94531"
       y="26.289062"
       width="75.125"
       height="108.80469"
       id="rect12460-2" /><rect
       x="-713.94238"
       y="53.274414"
       width="41.495117"
       height="50.939453"
       id="rect12516-8" /><rect
       x="-713.94238"
       y="53.274414"
       width="41.495117"
       height="50.939453"
       id="rect12516-0-47" /><rect
       x="-871.94531"
       y="26.289062"
       width="75.125"
       height="108.80469"
       id="rect12460-6" /><rect
       x="-713.94238"
       y="53.274414"
       width="41.495117"
       height="50.939453"
       id="rect12516-2" /><rect
       x="-713.94238"
       y="53.274414"
       width="41.495117"
       height="50.939453"
       id="rect12516-0-9" /><rect
       x="-871.94531"
       y="26.289062"
       width="75.125"
       height="108.80469"
       id="rect12460-1" /><rect
       x="-713.94238"
       y="53.274414"
       width="41.495117"
       height="50.939453"
       id="rect12516-1" /><rect
       x="-713.94238"
       y="53.274414"
       width="41.495117"
       height="50.939453"
       id="rect12516-0-0" /><rect
       x="-871.94531"
       y="26.289062"
       width="75.125"
       height="108.80469"
       id="rect12460-9" /><rect
       x="-713.94238"
       y="53.274414"
       width="41.495117"
       height="50.939453"
       id="rect12516-19" /><rect
       x="-713.94238"
       y="53.274414"
       width="41.495117"
       height="50.939453"
       id="rect12516-0-6" /><rect
       x="-871.94531"
       y="26.289062"
       width="75.125"
       height="108.80469"
       id="rect12460-56" /><rect
       x="-713.94238"
       y="53.274414"
       width="41.495117"
       height="50.939453"
       id="rect12516-64" /><rect
       x="-713.94238"
       y="53.274414"
       width="41.495117"
       height="50.939453"
       id="rect12516-0-00" /><rect
       x="-871.94531"
       y="26.289062"
       width="75.125"
       height="108.80469"
       id="rect12460-7" /><rect
       x="-713.94238"
       y="53.274414"
       width="41.495117"
       height="50.939453"
       id="rect12516-56" /><rect
       x="-713.94238"
       y="53.274414"
       width="41.495117"
       height="50.939453"
       id="rect12516-0-98" /><rect
       x="-871.94531"
       y="26.289062"
       width="75.125"
       height="108.80469"
       id="rect12460-99" /><rect
       x="-713.94238"
       y="53.274414"
       width="41.495117"
       height="50.939453"
       id="rect12516-60" /><rect
       x="-713.94238"
       y="53.274414"
       width="41.495117"
       height="50.939453"
       id="rect12516-0-2" /><rect
       x="-871.94531"
       y="26.289062"
       width="75.125"
       height="108.80469"
       id="rect12460-15" /><rect
       x="-713.94238"
       y="53.274414"
       width="41.495117"
       height="50.939453"
       id="rect12516-9" /><rect
       x="-713.94238"
       y="53.274414"
       width="41.495117"
       height="50.939453"
       id="rect12516-0-91" /><rect
       x="-871.94531"
       y="26.289062"
       width="75.125"
       height="108.80469"
       id="rect12460-58" /><rect
       x="-713.94238"
       y="53.274414"
       width="41.495117"
       height="50.939453"
       id="rect12516-7" /><rect
       x="-713.94238"
       y="53.274414"
       width="41.495117"
       height="50.939453"
       id="rect12516-0-04" /><rect
       x="-871.94531"
       y="26.289062"
       width="75.125"
       height="108.80469"
       id="rect12460-61" /><rect
       x="-713.94238"
       y="53.274414"
       width="41.495117"
       height="50.939453"
       id="rect12516-04" /><rect
       x="-713.94238"
       y="53.274414"
       width="41.495117"
       height="50.939453"
       id="rect12516-0-22" /><rect
       x="-871.94531"
       y="26.289062"
       width="75.125"
       height="108.80469"
       id="rect12460-29" /><rect
       x="-713.94238"
       y="53.274414"
       width="41.495117"
       height="50.939453"
       id="rect12516-02" /><rect
       x="-713.94238"
       y="53.274414"
       width="41.495117"
       height="50.939453"
       id="rect12516-0-83" /><rect
       x="-871.94531"
       y="26.289062"
       width="75.125"
       height="108.80469"
       id="rect12460-62" /><rect
       x="-713.94238"
       y="53.274414"
       width="41.495117"
       height="50.939453"
       id="rect12516-54" /><rect
       x="-713.94238"
       y="53.274414"
       width="41.495117"
       height="50.939453"
       id="rect12516-0-49" /><rect
       x="-871.94531"
       y="26.289062"
       width="75.125"
       height="108.80469"
       id="rect12460-99-7" /><rect
       x="-713.94238"
       y="53.274414"
       width="41.495117"
       height="50.939453"
       id="rect12516-60-3" /><rect
       x="-713.94238"
       y="53.274414"
       width="41.495117"
       height="50.939453"
       id="rect12516-0-2-2" /><rect
       x="-713.94238"
       y="53.274414"
       width="41.495117"
       height="50.939453"
       id="rect12516-60-3-9" /><rect
       x="-713.94238"
       y="53.274414"
       width="41.495117"
       height="50.939453"
       id="rect12516-0-2-2-3" /><rect
       x="-713.94238"
       y="53.274414"
       width="41.495117"
       height="50.939453"
       id="rect12516-60-3-9-9" /><rect
       x="-713.94238"
       y="53.274414"
       width="41.495117"
       height="50.939453"
       id="rect12516-60-3-9-7" /><rect
       x="-713.94238"
       y="53.274414"
       width="41.495117"
       height="50.939453"
       id="rect12516-60-3-9-7-4" /><rect
       x="-871.94531"
       y="26.289062"
       width="75.125"
       height="108.80469"
       id="rect12460-3-0" /><rect
       x="-713.94238"
       y="53.274414"
       width="41.495117"
       height="50.939453"
       id="rect3813" /><rect
       x="-871.94531"
       y="26.289062"
       width="75.125"
       height="108.80469"
       id="rect12460-3-7" /><rect
       x="-713.94238"
       y="53.274414"
       width="41.495117"
       height="50.939453"
       id="rect3813-3" /><rect
       x="-713.94238"
       y="53.274414"
       width="41.495117"
       height="50.939453"
       id="rect12516-6-7" /><rect
       x="-871.94531"
       y="26.289062"
       width="75.125"
       height="108.80469"
       id="rect12460-3-4" /><rect
       x="-713.94238"
       y="53.274414"
       width="41.495117"
       height="50.939453"
       id="rect12516-60-3-9-7-43" /><rect
       x="-713.94238"
       y="53.274414"
       width="41.495117"
       height="50.939453"
       id="rect12516-60-3-9-7-4-1" /></defs><g
     id="layer1"
     transform="translate(2.215018,12.290957)"><g
       id="g13269"
       transform="translate(159.0977,2.7167239)"><rect
         style="fill:#000000;stroke:none;stroke-width:10;stroke-linecap:round;stroke-linejoin:round"
         id="rect231-7"
         width="62"
         height="88"
         x="-161.31271"
         y="-15.007681"
         ry="4.0317755" /><g
         id="g5577"
         transform="matrix(0.12293244,0,0,0.12293244,-78.306034,66.778447)"><g
           id="g5581"
           transform="translate(146.85154,8.4215017)"><path
             style="fill:#ffd237;fill-opacity:1"
             d="m -658.72902,-252.90456 c -5.92559,-2.1753 -12.39286,-7.33752 -16.14265,-12.88515 -4.06353,-6.01179 -23.03859,-50.95285 -22.31239,-52.84529 0.6329,-1.64932 11.70149,-5.20334 12.70394,-4.07912 0.41038,0.46024 4.66007,10.28679 9.44375,21.83679 10.52382,25.40935 12.44246,28.82032 18.30117,32.5358 16.10678,10.21462 38.6877,-3.45544 34.32535,-20.7799 -0.6144,-2.44002 -5.16569,-14.15638 -10.11397,-26.03636 -4.94828,-11.87997 -8.80852,-22.09081 -8.5783,-22.69074 0.58632,-1.52795 11.6902,-4.88802 12.72698,-3.85124 1.37728,1.37728 17.82296,41.20266 20.08275,48.63304 5.87493,19.31721 -3.90003,34.277 -26.29127,40.23664 -6.72713,1.79049 -19.16971,1.75212 -24.14536,-0.0745 z m 57.52632,-55.27119 c -8.3875,-20.2144 -15.25,-37.26759 -15.25,-37.89598 0,-0.6284 2.85875,-2.09387 6.35278,-3.25661 6.35279,-2.11407 6.35279,-2.11407 36.25,15.48663 16.44347,9.68038 31.69722,18.77155 33.89722,20.20258 2.2,1.43104 3.48283,1.96287 2.85073,1.18184 -1.92075,-2.37327 -22.55034,-52.78806 -21.979,-53.71249 0.61313,-0.99207 12.44964,-4.73585 13.01907,-4.11782 0.76207,0.82712 30.6092,73.59722 30.6092,74.6281 0,1.27925 -7.15887,4.28217 -10.20858,4.28217 -1.19245,0 -15.92085,-8.18114 -32.72976,-18.1803 -16.80891,-9.99917 -31.98328,-19.0195 -33.72082,-20.04518 -3.51816,-2.0768 -4.98432,-6.14214 14.29893,39.64786 2.99305,7.1073 5.23346,13.4656 4.97868,14.12955 -0.48504,1.26399 -8.83502,4.46438 -11.54659,4.42558 -1.1178,-0.016 -5.97706,-10.63931 -16.82186,-36.77593 z m 108.03604,-1.65233 c -22.90952,-7.15977 -36.35276,-32.09165 -29.38137,-54.49078 7.88818,-25.34477 42.68594,-35.47029 66.09533,-19.23254 15.13458,10.49799 21.27371,28.68923 18.01191,44.45138 -1.89687,9.1663 -6.97301,17.51111 -15.30818,23.04368 -10.69939,7.10185 -27.91731,9.8224 -39.41769,6.22826 z m 22.23566,-13.62867 c 16.43804,-5.07719 22.83902,-20.60858 15.27712,-37.06854 -6.62608,-14.42296 -21.92275,-21.29308 -36.57454,-16.42653 -19.72593,6.5519 -23.70708,29.16181 -8.11354,46.0788 8.07023,8.75517 17.43265,11.116 29.41096,7.41627 z"
             id="path1107" /><path
             style="fill:#da3e28;fill-opacity:1"
             d="m -632.9527,-220.42015 c -44.17887,-5.81111 -71.60521,-33.17892 -69.10464,-68.95718 1.04193,-14.90809 3.29477,-15.79005 6.63425,-8.42705 1.61169,3.55351 2.34017,8.15128 2.54295,13.2159 1.04574,26.11881 18.58341,45.07038 49.42744,53.41229 12.3998,3.35358 44.469,3.34009 59.87961,-0.0252 5.79934,-1.26643 11.53897,-2.78833 17.18749,-4.54679 37.47617,-11.66688 70.94173,-33.74732 91.2281,-60.72166 4.67314,-6.21377 6.45482,-7.81563 9.8115,-8.82132 2.25581,-0.67586 4.72964,-1.46988 5.49739,-1.7645 5.747,-2.20533 -7.40886,17.39991 -20.62443,30.73511 -39.00154,39.35462 -102.18041,62.51655 -152.47966,55.9004 z m -55.5,-109.37059 c 0,-2.04488 10.71812,-16.19024 18.59187,-24.53683 27.61022,-29.26829 73.12284,-51.91459 114.74299,-57.09414 14.11797,-1.75695 41.77016,-0.72103 51.91606,1.94492 13.48859,3.54427 25.94982,9.11879 26.49908,11.85435 0.42426,2.11298 -13.36738,1.57969 -20.06989,-0.77605 -18.08166,-6.35519 -45.13334,-7.42997 -67.70147,-2.68982 -46.82895,9.83584 -91.51001,37.77703 -113.09149,70.72147 -1.29089,1.97056 -1.81639,1.5445 -3.03354,1.28298 -3.01556,-0.47103 -5.53886,-0.51278 -7.85361,-0.70688 z"
             id="path1107-2" /></g></g><g
         id="g10527"
         transform="matrix(1,0,0,0.33333333,89.037537,60.86178)"><rect
           style="fill:#da3e28;fill-opacity:1;stroke:none;stroke-width:5.59401;stroke-linecap:round;stroke-linejoin:round"
           id="rect8585"
           width="15.5"
           height="3"
           x="-219.35025"
           y="21.301619" /><rect
           style="fill:#ffd237;fill-opacity:1;stroke:none;stroke-width:5.59401;stroke-linecap:round;stroke-linejoin:round"
           id="rect8585-7"
           width="15.5"
           height="3"
           x="-203.85025"
           y="21.301619" /><rect
           style="fill:#85c040;fill-opacity:1;stroke:none;stroke-width:5.59401;stroke-linecap:round;stroke-linejoin:round"
           id="rect8585-0"
           width="15.5"
           height="3"
           x="-250.35025"
           y="21.301619" /><rect
           style="fill:#0a77b8;fill-opacity:1;stroke:none;stroke-width:5.59401;stroke-linecap:round;stroke-linejoin:round"
           id="rect8585-7-9"
           width="15.5"
           height="3"
           x="-234.85025"
           y="21.301619" /></g></g></g></svg>
