<?xml version="1.0" encoding="UTF-8" standalone="no"?>
<!-- Created with Inkscape (http://www.inkscape.org/) -->

<svg
   width="62"
   height="88"
   viewBox="0 0 62 88"
   version="1.1"
   id="svg5"
   xml:space="preserve"
   xmlns="http://www.w3.org/2000/svg"
   xmlns:svg="http://www.w3.org/2000/svg"><defs
     id="defs2"><rect
       x="-713.94238"
       y="53.274414"
       width="41.495117"
       height="50.939453"
       id="rect12516" /><rect
       x="-871.94531"
       y="26.289062"
       width="75.125"
       height="108.80469"
       id="rect12460" /><rect
       x="-713.94238"
       y="53.274414"
       width="41.495117"
       height="50.939453"
       id="rect12516-0" /><rect
       x="-871.94531"
       y="26.289062"
       width="75.125"
       height="108.80469"
       id="rect12460-3" /><rect
       x="-713.94238"
       y="53.274414"
       width="41.495117"
       height="50.939453"
       id="rect12516-6" /><rect
       x="-713.94238"
       y="53.274414"
       width="41.495117"
       height="50.939453"
       id="rect12516-0-8" /><rect
       x="-871.94531"
       y="26.289062"
       width="75.125"
       height="108.80469"
       id="rect12460-0" /><rect
       x="-713.94238"
       y="53.274414"
       width="41.495117"
       height="50.939453"
       id="rect12516-5" /><rect
       x="-713.94238"
       y="53.274414"
       width="41.495117"
       height="50.939453"
       id="rect12516-0-1" /><rect
       x="-871.94531"
       y="26.289062"
       width="75.125"
       height="108.80469"
       id="rect12460-5" /><rect
       x="-713.94238"
       y="53.274414"
       width="41.495117"
       height="50.939453"
       id="rect12516-06" /><rect
       x="-713.94238"
       y="53.274414"
       width="41.495117"
       height="50.939453"
       id="rect12516-0-4" /><rect
       x="-871.94531"
       y="26.289062"
       width="75.125"
       height="108.80469"
       id="rect12460-2" /><rect
       x="-713.94238"
       y="53.274414"
       width="41.495117"
       height="50.939453"
       id="rect12516-8" /><rect
       x="-713.94238"
       y="53.274414"
       width="41.495117"
       height="50.939453"
       id="rect12516-0-47" /><rect
       x="-871.94531"
       y="26.289062"
       width="75.125"
       height="108.80469"
       id="rect12460-6" /><rect
       x="-713.94238"
       y="53.274414"
       width="41.495117"
       height="50.939453"
       id="rect12516-2" /><rect
       x="-713.94238"
       y="53.274414"
       width="41.495117"
       height="50.939453"
       id="rect12516-0-9" /><rect
       x="-871.94531"
       y="26.289062"
       width="75.125"
       height="108.80469"
       id="rect12460-1" /><rect
       x="-713.94238"
       y="53.274414"
       width="41.495117"
       height="50.939453"
       id="rect12516-1" /><rect
       x="-713.94238"
       y="53.274414"
       width="41.495117"
       height="50.939453"
       id="rect12516-0-0" /><rect
       x="-871.94531"
       y="26.289062"
       width="75.125"
       height="108.80469"
       id="rect12460-9" /><rect
       x="-713.94238"
       y="53.274414"
       width="41.495117"
       height="50.939453"
       id="rect12516-19" /><rect
       x="-713.94238"
       y="53.274414"
       width="41.495117"
       height="50.939453"
       id="rect12516-0-6" /><rect
       x="-871.94531"
       y="26.289062"
       width="75.125"
       height="108.80469"
       id="rect12460-56" /><rect
       x="-713.94238"
       y="53.274414"
       width="41.495117"
       height="50.939453"
       id="rect12516-64" /><rect
       x="-713.94238"
       y="53.274414"
       width="41.495117"
       height="50.939453"
       id="rect12516-0-00" /><rect
       x="-871.94531"
       y="26.289062"
       width="75.125"
       height="108.80469"
       id="rect12460-7" /><rect
       x="-713.94238"
       y="53.274414"
       width="41.495117"
       height="50.939453"
       id="rect12516-56" /><rect
       x="-713.94238"
       y="53.274414"
       width="41.495117"
       height="50.939453"
       id="rect12516-0-98" /><rect
       x="-871.94531"
       y="26.289062"
       width="75.125"
       height="108.80469"
       id="rect12460-99" /><rect
       x="-713.94238"
       y="53.274414"
       width="41.495117"
       height="50.939453"
       id="rect12516-60" /><rect
       x="-713.94238"
       y="53.274414"
       width="41.495117"
       height="50.939453"
       id="rect12516-0-2" /><rect
       x="-871.94531"
       y="26.289062"
       width="75.125"
       height="108.80469"
       id="rect12460-15" /><rect
       x="-713.94238"
       y="53.274414"
       width="41.495117"
       height="50.939453"
       id="rect12516-9" /><rect
       x="-713.94238"
       y="53.274414"
       width="41.495117"
       height="50.939453"
       id="rect12516-0-91" /><rect
       x="-871.94531"
       y="26.289062"
       width="75.125"
       height="108.80469"
       id="rect12460-58" /><rect
       x="-713.94238"
       y="53.274414"
       width="41.495117"
       height="50.939453"
       id="rect12516-7" /><rect
       x="-713.94238"
       y="53.274414"
       width="41.495117"
       height="50.939453"
       id="rect12516-0-04" /><rect
       x="-871.94531"
       y="26.289062"
       width="75.125"
       height="108.80469"
       id="rect12460-61" /><rect
       x="-713.94238"
       y="53.274414"
       width="41.495117"
       height="50.939453"
       id="rect12516-04" /><rect
       x="-713.94238"
       y="53.274414"
       width="41.495117"
       height="50.939453"
       id="rect12516-0-22" /><rect
       x="-871.94531"
       y="26.289062"
       width="75.125"
       height="108.80469"
       id="rect12460-29" /><rect
       x="-713.94238"
       y="53.274414"
       width="41.495117"
       height="50.939453"
       id="rect12516-02" /><rect
       x="-713.94238"
       y="53.274414"
       width="41.495117"
       height="50.939453"
       id="rect12516-0-83" /><rect
       x="-871.94531"
       y="26.289062"
       width="75.125"
       height="108.80469"
       id="rect12460-62" /><rect
       x="-713.94238"
       y="53.274414"
       width="41.495117"
       height="50.939453"
       id="rect12516-54" /><rect
       x="-713.94238"
       y="53.274414"
       width="41.495117"
       height="50.939453"
       id="rect12516-0-49" /><rect
       x="-871.94531"
       y="26.289062"
       width="75.125"
       height="108.80469"
       id="rect12460-99-7" /><rect
       x="-713.94238"
       y="53.274414"
       width="41.495117"
       height="50.939453"
       id="rect12516-60-3" /><rect
       x="-713.94238"
       y="53.274414"
       width="41.495117"
       height="50.939453"
       id="rect12516-0-2-2" /><rect
       x="-713.94238"
       y="53.274414"
       width="41.495117"
       height="50.939453"
       id="rect12516-60-3-9" /><rect
       x="-713.94238"
       y="53.274414"
       width="41.495117"
       height="50.939453"
       id="rect12516-0-2-2-3" /><rect
       x="-713.94238"
       y="53.274414"
       width="41.495117"
       height="50.939453"
       id="rect12516-60-3-9-9" /><rect
       x="-713.94238"
       y="53.274414"
       width="41.495117"
       height="50.939453"
       id="rect12516-60-3-9-7" /><rect
       x="-713.94238"
       y="53.274414"
       width="41.495117"
       height="50.939453"
       id="rect12516-60-3-9-7-4" /><rect
       x="-871.94531"
       y="26.289062"
       width="75.125"
       height="108.80469"
       id="rect12460-3-0" /><rect
       x="-713.94238"
       y="53.274414"
       width="41.495117"
       height="50.939453"
       id="rect3813" /><rect
       x="-871.94531"
       y="26.289062"
       width="75.125"
       height="108.80469"
       id="rect12460-3-7" /><rect
       x="-713.94238"
       y="53.274414"
       width="41.495117"
       height="50.939453"
       id="rect3813-3" /><rect
       x="-713.94238"
       y="53.274414"
       width="41.495117"
       height="50.939453"
       id="rect12516-6-7" /><rect
       x="-871.94531"
       y="26.289062"
       width="75.125"
       height="108.80469"
       id="rect12460-3-4" /><rect
       x="-713.94238"
       y="53.274414"
       width="41.495117"
       height="50.939453"
       id="rect12516-60-3-9-7-43" /><rect
       x="-713.94238"
       y="53.274414"
       width="41.495117"
       height="50.939453"
       id="rect12516-60-3-9-7-4-1" /></defs><g
     id="layer1"
     transform="translate(2.215018,12.290957)"><g
       id="g1884"
       transform="translate(187.65696,183.9282)"><path
         id="rect231-35-9-2"
         style="fill:#ff17ef;stroke-width:10;stroke-linecap:round;stroke-linejoin:round"
         d="m -185.8402,-196.21916 h 53.93645 c 2.2336,0 4.03177,1.79817 4.03177,4.03177 v 79.93645 c 0,2.23361 -1.79817,4.03178 -4.03177,4.03178 h -53.93645 c -2.23361,0 -4.03178,-1.79817 -4.03178,-4.03178 v -79.93645 c 0,-2.2336 1.79817,-4.03177 4.03178,-4.03177 z" /><g
         aria-label="8"
         transform="translate(704.58134,-195.27954)"
         id="text12458-9"
         style="font-size:29.3333px;line-height:1.25;white-space:pre;shape-inside:url(#rect12460-6);display:inline;fill:#ffffff"><path
           d="m -863.45332,53.803698 q -1.56933,0 -2.87467,-0.410667 -1.30533,-0.425332 -2.24399,-1.202665 -0.93867,-0.777332 -1.452,-1.877331 -0.51333,-1.114665 -0.51333,-2.493331 0,-2.023997 1.05599,-3.329329 1.056,-1.319999 3.02133,-1.877331 -1.65733,-0.616 -2.50799,-1.833331 -0.836,-1.231999 -0.836,-2.93333 0,-1.158666 0.45466,-2.170665 0.45467,-1.011998 1.29067,-1.759998 0.836,-0.747999 1.99466,-1.173332 1.17334,-0.425332 2.61067,-0.425332 1.42266,0 2.59599,0.425332 1.17334,0.425333 2.00934,1.173332 0.83599,0.748 1.29066,1.759998 0.45467,1.011999 0.45467,2.170665 0,1.701331 -0.85067,2.93333 -0.85066,1.217331 -2.49333,1.833331 1.96533,0.557332 3.02133,1.877331 1.056,1.305332 1.056,3.329329 0,1.378666 -0.528,2.493331 -0.51333,1.099999 -1.452,1.877331 -0.924,0.777333 -2.22933,1.202665 -1.30533,0.410667 -2.87466,0.410667 z m 0,-2.082665 q 1.02666,0 1.83333,-0.278666 0.82133,-0.293333 1.37866,-0.806666 0.572,-0.527999 0.86534,-1.246665 0.308,-0.733333 0.308,-1.613332 0,-1.085332 -0.36667,-1.847997 -0.352,-0.777333 -0.968,-1.261332 -0.60133,-0.484 -1.39333,-0.703999 -0.792,-0.234667 -1.65733,-0.234667 -0.86533,0 -1.65733,0.234667 -0.792,0.219999 -1.408,0.703999 -0.60133,0.483999 -0.968,1.261332 -0.352,0.762665 -0.352,1.847997 0,0.879999 0.29333,1.613332 0.308,0.718666 0.86533,1.246665 0.572,0.513333 1.37867,0.806666 0.82133,0.278666 1.848,0.278666 z m 0,-10.090655 q 1.02666,0 1.74533,-0.307999 0.73333,-0.322667 1.188,-0.835999 0.45466,-0.528 0.66,-1.202666 0.20533,-0.674666 0.20533,-1.393331 0,-0.733333 -0.24933,-1.378666 -0.23467,-0.645332 -0.71867,-1.129332 -0.46933,-0.483999 -1.188,-0.762665 -0.704,-0.278667 -1.64266,-0.278667 -0.93867,0 -1.65733,0.278667 -0.704,0.278666 -1.188,0.762665 -0.46934,0.484 -0.71867,1.129332 -0.23466,0.645333 -0.23466,1.378666 0,0.718665 0.20533,1.393331 0.20533,0.674666 0.66,1.202666 0.45466,0.513332 1.17333,0.835999 0.73333,0.307999 1.76,0.307999 z"
           style="font-family:Lato;-inkscape-font-specification:'Lato, Normal'"
           id="path52448" /></g><g
         aria-label="8"
         transform="translate(528.9718,-243.63413)"
         id="text12514-08"
         style="font-size:10.6667px;line-height:1.25;white-space:pre;shape-inside:url(#rect12516-2);display:inline;fill:#ffffff"><path
           d="m -710.8534,63.278802 q -0.57066,0 -1.04533,-0.149333 -0.47467,-0.154668 -0.81601,-0.437335 -0.34133,-0.282668 -0.528,-0.682669 -0.18666,-0.405335 -0.18666,-0.906669 0,-0.736003 0.384,-1.210671 0.384,-0.480001 1.09867,-0.682669 -0.60267,-0.224 -0.91201,-0.666669 -0.304,-0.448001 -0.304,-1.06667 0,-0.421334 0.16534,-0.789335 0.16533,-0.368002 0.46933,-0.640002 0.304,-0.272001 0.72534,-0.426668 0.42667,-0.154668 0.94933,-0.154668 0.51734,0 0.94401,0.154668 0.42666,0.154667 0.73067,0.426668 0.304,0.272 0.46933,0.640002 0.16533,0.368001 0.16533,0.789335 0,0.618669 -0.30933,1.06667 -0.30933,0.442669 -0.90667,0.666669 0.71467,0.202668 1.09867,0.682669 0.384,0.474668 0.384,1.210671 0,0.501334 -0.192,0.906669 -0.18667,0.400001 -0.528,0.682669 -0.336,0.282667 -0.81067,0.437335 -0.47467,0.149333 -1.04534,0.149333 z m 0,-0.757335 q 0.37334,0 0.66667,-0.101334 0.29867,-0.106667 0.50134,-0.293334 0.208,-0.192001 0.31466,-0.453335 0.11201,-0.266667 0.11201,-0.586668 0,-0.394668 -0.13334,-0.672003 -0.128,-0.282667 -0.352,-0.458668 -0.21867,-0.176 -0.50667,-0.256001 -0.288,-0.08533 -0.60267,-0.08533 -0.31466,0 -0.60267,0.08533 -0.288,0.08 -0.512,0.256001 -0.21866,0.176001 -0.352,0.458668 -0.128,0.277335 -0.128,0.672003 0,0.320001 0.10667,0.586668 0.112,0.261334 0.31467,0.453335 0.208,0.186667 0.50133,0.293334 0.29867,0.101334 0.672,0.101334 z m 0,-3.669345 q 0.37334,0 0.63467,-0.112001 0.26667,-0.117333 0.432,-0.304001 0.16534,-0.192 0.24,-0.437334 0.0747,-0.245334 0.0747,-0.506669 0,-0.266667 -0.0907,-0.501334 -0.0853,-0.234668 -0.26133,-0.410668 -0.17067,-0.176001 -0.432,-0.277335 -0.256,-0.101333 -0.59734,-0.101333 -0.34133,0 -0.60267,0.101333 -0.256,0.101334 -0.432,0.277335 -0.17066,0.176 -0.26133,0.410668 -0.0853,0.234667 -0.0853,0.501334 0,0.261335 0.0747,0.506669 0.0747,0.245334 0.24,0.437334 0.16534,0.186668 0.42667,0.304001 0.26667,0.112001 0.64,0.112001 z"
           style="font-family:Lato;-inkscape-font-specification:'Lato, Normal'"
           id="path52451" /></g><g
         aria-label="8"
         transform="rotate(180,-423.35785,-30.402089)"
         id="text12514-6-13"
         style="font-size:10.6667px;line-height:1.25;white-space:pre;shape-inside:url(#rect12516-0-9);display:inline;fill:#ffffff"><path
           d="m -710.8534,63.278802 q -0.57066,0 -1.04533,-0.149333 -0.47467,-0.154668 -0.81601,-0.437335 -0.34133,-0.282668 -0.528,-0.682669 -0.18666,-0.405335 -0.18666,-0.906669 0,-0.736003 0.384,-1.210671 0.384,-0.480001 1.09867,-0.682669 -0.60267,-0.224 -0.91201,-0.666669 -0.304,-0.448001 -0.304,-1.06667 0,-0.421334 0.16534,-0.789335 0.16533,-0.368002 0.46933,-0.640002 0.304,-0.272001 0.72534,-0.426668 0.42667,-0.154668 0.94933,-0.154668 0.51734,0 0.94401,0.154668 0.42666,0.154667 0.73067,0.426668 0.304,0.272 0.46933,0.640002 0.16533,0.368001 0.16533,0.789335 0,0.618669 -0.30933,1.06667 -0.30933,0.442669 -0.90667,0.666669 0.71467,0.202668 1.09867,0.682669 0.384,0.474668 0.384,1.210671 0,0.501334 -0.192,0.906669 -0.18667,0.400001 -0.528,0.682669 -0.336,0.282667 -0.81067,0.437335 -0.47467,0.149333 -1.04534,0.149333 z m 0,-0.757335 q 0.37334,0 0.66667,-0.101334 0.29867,-0.106667 0.50134,-0.293334 0.208,-0.192001 0.31466,-0.453335 0.11201,-0.266667 0.11201,-0.586668 0,-0.394668 -0.13334,-0.672003 -0.128,-0.282667 -0.352,-0.458668 -0.21867,-0.176 -0.50667,-0.256001 -0.288,-0.08533 -0.60267,-0.08533 -0.31466,0 -0.60267,0.08533 -0.288,0.08 -0.512,0.256001 -0.21866,0.176001 -0.352,0.458668 -0.128,0.277335 -0.128,0.672003 0,0.320001 0.10667,0.586668 0.112,0.261334 0.31467,0.453335 0.208,0.186667 0.50133,0.293334 0.29867,0.101334 0.672,0.101334 z m 0,-3.669345 q 0.37334,0 0.63467,-0.112001 0.26667,-0.117333 0.432,-0.304001 0.16534,-0.192 0.24,-0.437334 0.0747,-0.245334 0.0747,-0.506669 0,-0.266667 -0.0907,-0.501334 -0.0853,-0.234668 -0.26133,-0.410668 -0.17067,-0.176001 -0.432,-0.277335 -0.256,-0.101333 -0.59734,-0.101333 -0.34133,0 -0.60267,0.101333 -0.256,0.101334 -0.432,0.277335 -0.17066,0.176 -0.26133,0.410668 -0.0853,0.234667 -0.0853,0.501334 0,0.261335 0.0747,0.506669 0.0747,0.245334 0.24,0.437334 0.16534,0.186668 0.42667,0.304001 0.26667,0.112001 0.64,0.112001 z"
           style="font-family:Lato;-inkscape-font-specification:'Lato, Normal'"
           id="path52454" /></g></g></g></svg>
