<?xml version="1.0" encoding="UTF-8" standalone="no"?>
<!-- Created with Inkscape (http://www.inkscape.org/) -->

<svg
   width="62"
   height="88"
   viewBox="0 0 62 88"
   version="1.1"
   id="svg5"
   xml:space="preserve"
   xmlns="http://www.w3.org/2000/svg"
   xmlns:svg="http://www.w3.org/2000/svg"><defs
     id="defs2"><rect
       x="-713.94238"
       y="53.274414"
       width="41.495117"
       height="50.939453"
       id="rect12516" /><rect
       x="-871.94531"
       y="26.289062"
       width="75.125"
       height="108.80469"
       id="rect12460" /><rect
       x="-713.94238"
       y="53.274414"
       width="41.495117"
       height="50.939453"
       id="rect12516-0" /><rect
       x="-871.94531"
       y="26.289062"
       width="75.125"
       height="108.80469"
       id="rect12460-3" /><rect
       x="-713.94238"
       y="53.274414"
       width="41.495117"
       height="50.939453"
       id="rect12516-6" /><rect
       x="-713.94238"
       y="53.274414"
       width="41.495117"
       height="50.939453"
       id="rect12516-0-8" /><rect
       x="-871.94531"
       y="26.289062"
       width="75.125"
       height="108.80469"
       id="rect12460-0" /><rect
       x="-713.94238"
       y="53.274414"
       width="41.495117"
       height="50.939453"
       id="rect12516-5" /><rect
       x="-713.94238"
       y="53.274414"
       width="41.495117"
       height="50.939453"
       id="rect12516-0-1" /><rect
       x="-871.94531"
       y="26.289062"
       width="75.125"
       height="108.80469"
       id="rect12460-5" /><rect
       x="-713.94238"
       y="53.274414"
       width="41.495117"
       height="50.939453"
       id="rect12516-06" /><rect
       x="-713.94238"
       y="53.274414"
       width="41.495117"
       height="50.939453"
       id="rect12516-0-4" /><rect
       x="-871.94531"
       y="26.289062"
       width="75.125"
       height="108.80469"
       id="rect12460-2" /><rect
       x="-713.94238"
       y="53.274414"
       width="41.495117"
       height="50.939453"
       id="rect12516-8" /><rect
       x="-713.94238"
       y="53.274414"
       width="41.495117"
       height="50.939453"
       id="rect12516-0-47" /><rect
       x="-871.94531"
       y="26.289062"
       width="75.125"
       height="108.80469"
       id="rect12460-6" /><rect
       x="-713.94238"
       y="53.274414"
       width="41.495117"
       height="50.939453"
       id="rect12516-2" /><rect
       x="-713.94238"
       y="53.274414"
       width="41.495117"
       height="50.939453"
       id="rect12516-0-9" /><rect
       x="-871.94531"
       y="26.289062"
       width="75.125"
       height="108.80469"
       id="rect12460-1" /><rect
       x="-713.94238"
       y="53.274414"
       width="41.495117"
       height="50.939453"
       id="rect12516-1" /><rect
       x="-713.94238"
       y="53.274414"
       width="41.495117"
       height="50.939453"
       id="rect12516-0-0" /><rect
       x="-871.94531"
       y="26.289062"
       width="75.125"
       height="108.80469"
       id="rect12460-9" /><rect
       x="-713.94238"
       y="53.274414"
       width="41.495117"
       height="50.939453"
       id="rect12516-19" /><rect
       x="-713.94238"
       y="53.274414"
       width="41.495117"
       height="50.939453"
       id="rect12516-0-6" /><rect
       x="-871.94531"
       y="26.289062"
       width="75.125"
       height="108.80469"
       id="rect12460-56" /><rect
       x="-713.94238"
       y="53.274414"
       width="41.495117"
       height="50.939453"
       id="rect12516-64" /><rect
       x="-713.94238"
       y="53.274414"
       width="41.495117"
       height="50.939453"
       id="rect12516-0-00" /><rect
       x="-871.94531"
       y="26.289062"
       width="75.125"
       height="108.80469"
       id="rect12460-7" /><rect
       x="-713.94238"
       y="53.274414"
       width="41.495117"
       height="50.939453"
       id="rect12516-56" /><rect
       x="-713.94238"
       y="53.274414"
       width="41.495117"
       height="50.939453"
       id="rect12516-0-98" /><rect
       x="-871.94531"
       y="26.289062"
       width="75.125"
       height="108.80469"
       id="rect12460-99" /><rect
       x="-713.94238"
       y="53.274414"
       width="41.495117"
       height="50.939453"
       id="rect12516-60" /><rect
       x="-713.94238"
       y="53.274414"
       width="41.495117"
       height="50.939453"
       id="rect12516-0-2" /><rect
       x="-871.94531"
       y="26.289062"
       width="75.125"
       height="108.80469"
       id="rect12460-15" /><rect
       x="-713.94238"
       y="53.274414"
       width="41.495117"
       height="50.939453"
       id="rect12516-9" /><rect
       x="-713.94238"
       y="53.274414"
       width="41.495117"
       height="50.939453"
       id="rect12516-0-91" /><rect
       x="-871.94531"
       y="26.289062"
       width="75.125"
       height="108.80469"
       id="rect12460-58" /><rect
       x="-713.94238"
       y="53.274414"
       width="41.495117"
       height="50.939453"
       id="rect12516-7" /><rect
       x="-713.94238"
       y="53.274414"
       width="41.495117"
       height="50.939453"
       id="rect12516-0-04" /><rect
       x="-871.94531"
       y="26.289062"
       width="75.125"
       height="108.80469"
       id="rect12460-61" /><rect
       x="-713.94238"
       y="53.274414"
       width="41.495117"
       height="50.939453"
       id="rect12516-04" /><rect
       x="-713.94238"
       y="53.274414"
       width="41.495117"
       height="50.939453"
       id="rect12516-0-22" /><rect
       x="-871.94531"
       y="26.289062"
       width="75.125"
       height="108.80469"
       id="rect12460-29" /><rect
       x="-713.94238"
       y="53.274414"
       width="41.495117"
       height="50.939453"
       id="rect12516-02" /><rect
       x="-713.94238"
       y="53.274414"
       width="41.495117"
       height="50.939453"
       id="rect12516-0-83" /><rect
       x="-871.94531"
       y="26.289062"
       width="75.125"
       height="108.80469"
       id="rect12460-62" /><rect
       x="-713.94238"
       y="53.274414"
       width="41.495117"
       height="50.939453"
       id="rect12516-54" /><rect
       x="-713.94238"
       y="53.274414"
       width="41.495117"
       height="50.939453"
       id="rect12516-0-49" /><rect
       x="-871.94531"
       y="26.289062"
       width="75.125"
       height="108.80469"
       id="rect12460-99-7" /><rect
       x="-713.94238"
       y="53.274414"
       width="41.495117"
       height="50.939453"
       id="rect12516-60-3" /><rect
       x="-713.94238"
       y="53.274414"
       width="41.495117"
       height="50.939453"
       id="rect12516-0-2-2" /><rect
       x="-713.94238"
       y="53.274414"
       width="41.495117"
       height="50.939453"
       id="rect12516-60-3-9" /><rect
       x="-713.94238"
       y="53.274414"
       width="41.495117"
       height="50.939453"
       id="rect12516-0-2-2-3" /><rect
       x="-713.94238"
       y="53.274414"
       width="41.495117"
       height="50.939453"
       id="rect12516-60-3-9-9" /><rect
       x="-713.94238"
       y="53.274414"
       width="41.495117"
       height="50.939453"
       id="rect12516-60-3-9-7" /><rect
       x="-713.94238"
       y="53.274414"
       width="41.495117"
       height="50.939453"
       id="rect12516-60-3-9-7-4" /><rect
       x="-871.94531"
       y="26.289062"
       width="75.125"
       height="108.80469"
       id="rect12460-3-0" /><rect
       x="-713.94238"
       y="53.274414"
       width="41.495117"
       height="50.939453"
       id="rect3813" /><rect
       x="-871.94531"
       y="26.289062"
       width="75.125"
       height="108.80469"
       id="rect12460-3-7" /><rect
       x="-713.94238"
       y="53.274414"
       width="41.495117"
       height="50.939453"
       id="rect3813-3" /><rect
       x="-713.94238"
       y="53.274414"
       width="41.495117"
       height="50.939453"
       id="rect12516-6-7" /><rect
       x="-871.94531"
       y="26.289062"
       width="75.125"
       height="108.80469"
       id="rect12460-3-4" /><rect
       x="-713.94238"
       y="53.274414"
       width="41.495117"
       height="50.939453"
       id="rect12516-60-3-9-7-43" /><rect
       x="-713.94238"
       y="53.274414"
       width="41.495117"
       height="50.939453"
       id="rect12516-60-3-9-7-4-1" /></defs><g
     id="layer1"
     transform="translate(2.215018,12.290957)"><g
       id="g2619"
       transform="translate(242.65696,354.92819)"><path
         id="rect231-35-9-28"
         style="fill:#ff17ef;stroke-width:10;stroke-linecap:round;stroke-linejoin:round"
         d="m -240.8402,-367.21915 h 53.93645 c 2.2336,0 4.03177,1.79818 4.03177,4.03178 v 79.93645 c 0,2.2336 -1.79817,4.03177 -4.03177,4.03177 h -53.93645 c -2.23361,0 -4.03178,-1.79817 -4.03178,-4.03177 v -79.93645 c 0,-2.2336 1.79817,-4.03178 4.03178,-4.03178 z" /><g
         aria-label="5"
         transform="translate(649.78668,-366.39686)"
         id="text12458-8"
         style="font-size:29.3333px;line-height:1.25;white-space:pre;shape-inside:url(#rect12460-58);display:inline;fill:#ffffff"><path
           d="m -857.60133,33.695721 q 0,0.557332 -0.352,0.923999 -0.352,0.351999 -1.188,0.351999 h -6.59999 l -0.968,5.514661 q 1.64267,-0.352 3.036,-0.352 1.64266,0 2.88933,0.483999 1.26133,0.484 2.112,1.334666 0.85066,0.850665 1.27599,2.009331 0.44,1.158665 0.44,2.522663 0,1.671998 -0.58666,3.02133 -0.58667,1.349332 -1.61333,2.317331 -1.012,0.953332 -2.39067,1.466665 -1.37866,0.513333 -2.97733,0.513333 -0.924,0 -1.77466,-0.190667 -0.85067,-0.176 -1.584,-0.483999 -0.73333,-0.308 -1.364,-0.704 -0.63066,-0.395999 -1.11466,-0.835999 l 0.79199,-1.114665 q 0.264,-0.381333 0.704,-0.381333 0.27867,0 0.64534,0.234667 0.38133,0.219999 0.90933,0.498666 0.528,0.278666 1.232,0.513332 0.71866,0.22 1.70133,0.22 1.1,0 1.98,-0.351999 0.88,-0.352 1.49599,-0.997333 0.63067,-0.659999 0.968,-1.569331 0.33734,-0.909332 0.33734,-2.038665 0,-0.982665 -0.29334,-1.774664 -0.27866,-0.791999 -0.86533,-1.349332 -0.572,-0.557333 -1.43733,-0.865332 -0.86533,-0.308 -2.024,-0.308 -0.792,0 -1.64266,0.132 -0.85067,0.132 -1.76,0.425333 l -1.64267,-0.484 1.70134,-9.826655 h 9.95865 z"
           style="font-family:Lato;-inkscape-font-specification:'Lato, Normal'"
           id="path52534" /></g><g
         aria-label="5"
         transform="translate(474.04647,-414.67678)"
         id="text12514-04"
         style="font-size:10.6667px;line-height:1.25;white-space:pre;shape-inside:url(#rect12516-7);display:inline;fill:#ffffff"><path
           d="m -708.72539,55.966779 q 0,0.202668 -0.128,0.336001 -0.128,0.128001 -0.432,0.128001 h -2.40001 l -0.352,2.005339 q 0.59733,-0.128 1.104,-0.128 0.59734,0 1.05067,0.176001 0.45867,0.176 0.76801,0.485334 0.30933,0.309335 0.464,0.730669 0.16,0.421335 0.16,0.917337 0,0.608002 -0.21334,1.09867 -0.21333,0.490668 -0.58666,0.842669 -0.36801,0.346668 -0.86934,0.533335 -0.50134,0.186667 -1.08267,0.186667 -0.336,0 -0.64534,-0.06933 -0.30933,-0.064 -0.576,-0.176001 -0.26667,-0.112 -0.496,-0.256 -0.22933,-0.144001 -0.40533,-0.304001 l 0.288,-0.405335 q 0.096,-0.138667 0.256,-0.138667 0.10133,0 0.23466,0.08533 0.13867,0.08 0.33067,0.181334 0.192,0.101334 0.448,0.186668 0.26134,0.08 0.61867,0.08 0.4,0 0.72,-0.128001 0.32001,-0.128 0.54401,-0.362667 0.22933,-0.240001 0.352,-0.570669 0.12266,-0.330668 0.12266,-0.741335 0,-0.357335 -0.10666,-0.645336 -0.10134,-0.288001 -0.31467,-0.490668 -0.208,-0.202667 -0.52267,-0.314668 -0.31467,-0.112 -0.736,-0.112 -0.288,0 -0.59734,0.048 -0.30933,0.048 -0.64,0.154667 l -0.59733,-0.176 0.61867,-3.573345 h 3.62134 z"
           style="font-family:Lato;-inkscape-font-specification:'Lato, Normal'"
           id="path52537" /></g><g
         aria-label="5"
         transform="rotate(180,-450.89518,-115.88076)"
         id="text12514-6-29"
         style="font-size:10.6667px;line-height:1.25;white-space:pre;shape-inside:url(#rect12516-0-04);display:inline;fill:#ffffff"><path
           d="m -708.72539,55.966779 q 0,0.202668 -0.128,0.336001 -0.128,0.128001 -0.432,0.128001 h -2.40001 l -0.352,2.005339 q 0.59733,-0.128 1.104,-0.128 0.59734,0 1.05067,0.176001 0.45867,0.176 0.76801,0.485334 0.30933,0.309335 0.464,0.730669 0.16,0.421335 0.16,0.917337 0,0.608002 -0.21334,1.09867 -0.21333,0.490668 -0.58666,0.842669 -0.36801,0.346668 -0.86934,0.533335 -0.50134,0.186667 -1.08267,0.186667 -0.336,0 -0.64534,-0.06933 -0.30933,-0.064 -0.576,-0.176001 -0.26667,-0.112 -0.496,-0.256 -0.22933,-0.144001 -0.40533,-0.304001 l 0.288,-0.405335 q 0.096,-0.138667 0.256,-0.138667 0.10133,0 0.23466,0.08533 0.13867,0.08 0.33067,0.181334 0.192,0.101334 0.448,0.186668 0.26134,0.08 0.61867,0.08 0.4,0 0.72,-0.128001 0.32001,-0.128 0.54401,-0.362667 0.22933,-0.240001 0.352,-0.570669 0.12266,-0.330668 0.12266,-0.741335 0,-0.357335 -0.10666,-0.645336 -0.10134,-0.288001 -0.31467,-0.490668 -0.208,-0.202667 -0.52267,-0.314668 -0.31467,-0.112 -0.736,-0.112 -0.288,0 -0.59734,0.048 -0.30933,0.048 -0.64,0.154667 l -0.59733,-0.176 0.61867,-3.573345 h 3.62134 z"
           style="font-family:Lato;-inkscape-font-specification:'Lato, Normal'"
           id="path52540" /></g></g></g></svg>
