<?xml version="1.0" encoding="UTF-8" standalone="no"?>
<!-- Created with Inkscape (http://www.inkscape.org/) -->

<svg
   width="62"
   height="88"
   viewBox="0 0 62 88"
   version="1.1"
   id="svg5"
   xml:space="preserve"
   xmlns="http://www.w3.org/2000/svg"
   xmlns:svg="http://www.w3.org/2000/svg"><defs
     id="defs2"><rect
       x="-713.94238"
       y="53.274414"
       width="41.495117"
       height="50.939453"
       id="rect12516" /><rect
       x="-871.94531"
       y="26.289062"
       width="75.125"
       height="108.80469"
       id="rect12460" /><rect
       x="-713.94238"
       y="53.274414"
       width="41.495117"
       height="50.939453"
       id="rect12516-0" /><rect
       x="-871.94531"
       y="26.289062"
       width="75.125"
       height="108.80469"
       id="rect12460-3" /><rect
       x="-713.94238"
       y="53.274414"
       width="41.495117"
       height="50.939453"
       id="rect12516-6" /><rect
       x="-713.94238"
       y="53.274414"
       width="41.495117"
       height="50.939453"
       id="rect12516-0-8" /><rect
       x="-871.94531"
       y="26.289062"
       width="75.125"
       height="108.80469"
       id="rect12460-0" /><rect
       x="-713.94238"
       y="53.274414"
       width="41.495117"
       height="50.939453"
       id="rect12516-5" /><rect
       x="-713.94238"
       y="53.274414"
       width="41.495117"
       height="50.939453"
       id="rect12516-0-1" /><rect
       x="-871.94531"
       y="26.289062"
       width="75.125"
       height="108.80469"
       id="rect12460-5" /><rect
       x="-713.94238"
       y="53.274414"
       width="41.495117"
       height="50.939453"
       id="rect12516-06" /><rect
       x="-713.94238"
       y="53.274414"
       width="41.495117"
       height="50.939453"
       id="rect12516-0-4" /><rect
       x="-871.94531"
       y="26.289062"
       width="75.125"
       height="108.80469"
       id="rect12460-2" /><rect
       x="-713.94238"
       y="53.274414"
       width="41.495117"
       height="50.939453"
       id="rect12516-8" /><rect
       x="-713.94238"
       y="53.274414"
       width="41.495117"
       height="50.939453"
       id="rect12516-0-47" /><rect
       x="-871.94531"
       y="26.289062"
       width="75.125"
       height="108.80469"
       id="rect12460-6" /><rect
       x="-713.94238"
       y="53.274414"
       width="41.495117"
       height="50.939453"
       id="rect12516-2" /><rect
       x="-713.94238"
       y="53.274414"
       width="41.495117"
       height="50.939453"
       id="rect12516-0-9" /><rect
       x="-871.94531"
       y="26.289062"
       width="75.125"
       height="108.80469"
       id="rect12460-1" /><rect
       x="-713.94238"
       y="53.274414"
       width="41.495117"
       height="50.939453"
       id="rect12516-1" /><rect
       x="-713.94238"
       y="53.274414"
       width="41.495117"
       height="50.939453"
       id="rect12516-0-0" /><rect
       x="-871.94531"
       y="26.289062"
       width="75.125"
       height="108.80469"
       id="rect12460-9" /><rect
       x="-713.94238"
       y="53.274414"
       width="41.495117"
       height="50.939453"
       id="rect12516-19" /><rect
       x="-713.94238"
       y="53.274414"
       width="41.495117"
       height="50.939453"
       id="rect12516-0-6" /><rect
       x="-871.94531"
       y="26.289062"
       width="75.125"
       height="108.80469"
       id="rect12460-56" /><rect
       x="-713.94238"
       y="53.274414"
       width="41.495117"
       height="50.939453"
       id="rect12516-64" /><rect
       x="-713.94238"
       y="53.274414"
       width="41.495117"
       height="50.939453"
       id="rect12516-0-00" /><rect
       x="-871.94531"
       y="26.289062"
       width="75.125"
       height="108.80469"
       id="rect12460-7" /><rect
       x="-713.94238"
       y="53.274414"
       width="41.495117"
       height="50.939453"
       id="rect12516-56" /><rect
       x="-713.94238"
       y="53.274414"
       width="41.495117"
       height="50.939453"
       id="rect12516-0-98" /><rect
       x="-871.94531"
       y="26.289062"
       width="75.125"
       height="108.80469"
       id="rect12460-99" /><rect
       x="-713.94238"
       y="53.274414"
       width="41.495117"
       height="50.939453"
       id="rect12516-60" /><rect
       x="-713.94238"
       y="53.274414"
       width="41.495117"
       height="50.939453"
       id="rect12516-0-2" /><rect
       x="-871.94531"
       y="26.289062"
       width="75.125"
       height="108.80469"
       id="rect12460-15" /><rect
       x="-713.94238"
       y="53.274414"
       width="41.495117"
       height="50.939453"
       id="rect12516-9" /><rect
       x="-713.94238"
       y="53.274414"
       width="41.495117"
       height="50.939453"
       id="rect12516-0-91" /><rect
       x="-871.94531"
       y="26.289062"
       width="75.125"
       height="108.80469"
       id="rect12460-58" /><rect
       x="-713.94238"
       y="53.274414"
       width="41.495117"
       height="50.939453"
       id="rect12516-7" /><rect
       x="-713.94238"
       y="53.274414"
       width="41.495117"
       height="50.939453"
       id="rect12516-0-04" /><rect
       x="-871.94531"
       y="26.289062"
       width="75.125"
       height="108.80469"
       id="rect12460-61" /><rect
       x="-713.94238"
       y="53.274414"
       width="41.495117"
       height="50.939453"
       id="rect12516-04" /><rect
       x="-713.94238"
       y="53.274414"
       width="41.495117"
       height="50.939453"
       id="rect12516-0-22" /><rect
       x="-871.94531"
       y="26.289062"
       width="75.125"
       height="108.80469"
       id="rect12460-29" /><rect
       x="-713.94238"
       y="53.274414"
       width="41.495117"
       height="50.939453"
       id="rect12516-02" /><rect
       x="-713.94238"
       y="53.274414"
       width="41.495117"
       height="50.939453"
       id="rect12516-0-83" /><rect
       x="-871.94531"
       y="26.289062"
       width="75.125"
       height="108.80469"
       id="rect12460-62" /><rect
       x="-713.94238"
       y="53.274414"
       width="41.495117"
       height="50.939453"
       id="rect12516-54" /><rect
       x="-713.94238"
       y="53.274414"
       width="41.495117"
       height="50.939453"
       id="rect12516-0-49" /><rect
       x="-871.94531"
       y="26.289062"
       width="75.125"
       height="108.80469"
       id="rect12460-99-7" /><rect
       x="-713.94238"
       y="53.274414"
       width="41.495117"
       height="50.939453"
       id="rect12516-60-3" /><rect
       x="-713.94238"
       y="53.274414"
       width="41.495117"
       height="50.939453"
       id="rect12516-0-2-2" /><rect
       x="-713.94238"
       y="53.274414"
       width="41.495117"
       height="50.939453"
       id="rect12516-60-3-9" /><rect
       x="-713.94238"
       y="53.274414"
       width="41.495117"
       height="50.939453"
       id="rect12516-0-2-2-3" /><rect
       x="-713.94238"
       y="53.274414"
       width="41.495117"
       height="50.939453"
       id="rect12516-60-3-9-9" /><rect
       x="-713.94238"
       y="53.274414"
       width="41.495117"
       height="50.939453"
       id="rect12516-60-3-9-7" /><rect
       x="-713.94238"
       y="53.274414"
       width="41.495117"
       height="50.939453"
       id="rect12516-60-3-9-7-4" /><rect
       x="-871.94531"
       y="26.289062"
       width="75.125"
       height="108.80469"
       id="rect12460-3-0" /><rect
       x="-713.94238"
       y="53.274414"
       width="41.495117"
       height="50.939453"
       id="rect3813" /><rect
       x="-871.94531"
       y="26.289062"
       width="75.125"
       height="108.80469"
       id="rect12460-3-7" /><rect
       x="-713.94238"
       y="53.274414"
       width="41.495117"
       height="50.939453"
       id="rect3813-3" /><rect
       x="-713.94238"
       y="53.274414"
       width="41.495117"
       height="50.939453"
       id="rect12516-6-7" /><rect
       x="-871.94531"
       y="26.289062"
       width="75.125"
       height="108.80469"
       id="rect12460-3-4" /><rect
       x="-713.94238"
       y="53.274414"
       width="41.495117"
       height="50.939453"
       id="rect12516-60-3-9-7-43" /><rect
       x="-713.94238"
       y="53.274414"
       width="41.495117"
       height="50.939453"
       id="rect12516-60-3-9-7-4-1" /></defs><g
     id="layer1"
     transform="translate(2.215018,12.290957)"><g
       id="g3432"
       transform="translate(-484.5303,516.92822)"><path
         id="rect231-35"
         style="fill:#ff17ef;stroke-width:10;stroke-linecap:round;stroke-linejoin:round"
         d="m 486.34705,-529.21918 h 53.93645 c 2.23361,0 4.03178,1.79817 4.03178,4.03178 v 79.93645 c 0,2.2336 -1.79817,4.03177 -4.03178,4.03177 h -53.93645 c -2.2336,0 -4.03177,-1.79817 -4.03177,-4.03177 v -79.93645 c 0,-2.23361 1.79817,-4.03178 4.03177,-4.03178 z" /><g
         aria-label="1"
         transform="translate(1376.0426,-528.25755)"
         id="text12458"
         style="font-size:29.3333px;line-height:1.25;white-space:pre;shape-inside:url(#rect12460);display:inline;fill:#ffffff"><path
           d="m -867.73598,51.574367 h 4.51732 V 37.24505 q 0,-0.645333 0.044,-1.305332 l -3.75466,3.211996 q -0.14666,0.117334 -0.29333,0.176 -0.14667,0.044 -0.27867,0.044 -0.22,0 -0.396,-0.088 -0.176,-0.102666 -0.264,-0.234666 l -0.82133,-1.129332 6.24799,-5.411994 h 2.12667 v 19.066645 h 4.13599 v 1.994664 h -11.26398 z"
           style="font-family:Lato;-inkscape-font-specification:'Lato, Normal'"
           id="path52438" /></g><g
         aria-label="1"
         transform="translate(1200.8951,-576.62612)"
         id="text12514"
         style="font-size:10.6667px;line-height:1.25;white-space:pre;shape-inside:url(#rect12516);display:inline;fill:#ffffff;fill-opacity:0.997719"><path
           d="m -712.41073,62.468133 h 1.64267 V 57.25745 q 0,-0.234667 0.016,-0.474668 l -1.36534,1.168004 q -0.0533,0.04267 -0.10667,0.064 -0.0533,0.016 -0.10133,0.016 -0.08,0 -0.144,-0.032 -0.064,-0.03733 -0.096,-0.08533 l -0.29867,-0.410668 2.27201,-1.968006 h 0.77333 v 6.933355 h 1.50401 v 0.725336 h -4.09601 z"
           style="font-family:Lato;-inkscape-font-specification:'Lato, Normal'"
           id="path52441" /></g><g
         aria-label="1"
         transform="rotate(180,-87.132268,-196.90609)"
         id="text12514-6"
         style="font-size:10.6667px;line-height:1.25;white-space:pre;shape-inside:url(#rect12516-0);display:inline;fill:#ffffff;fill-opacity:0.996636"><path
           d="m -712.41073,62.468133 h 1.64267 V 57.25745 q 0,-0.234667 0.016,-0.474668 l -1.36534,1.168004 q -0.0533,0.04267 -0.10667,0.064 -0.0533,0.016 -0.10133,0.016 -0.08,0 -0.144,-0.032 -0.064,-0.03733 -0.096,-0.08533 l -0.29867,-0.410668 2.27201,-1.968006 h 0.77333 v 6.933355 h 1.50401 v 0.725336 h -4.09601 z"
           style="font-family:Lato;-inkscape-font-specification:'Lato, Normal'"
           id="path52444" /></g></g></g></svg>
