<?xml version="1.0" encoding="UTF-8" standalone="no"?>
<!-- Created with Inkscape (http://www.inkscape.org/) -->

<svg
   width="62"
   height="88"
   viewBox="0 0 62 88"
   version="1.1"
   id="svg5"
   xml:space="preserve"
   xmlns="http://www.w3.org/2000/svg"
   xmlns:svg="http://www.w3.org/2000/svg"><defs
     id="defs2"><rect
       x="-713.94238"
       y="53.274414"
       width="41.495117"
       height="50.939453"
       id="rect12516" /><rect
       x="-871.94531"
       y="26.289062"
       width="75.125"
       height="108.80469"
       id="rect12460" /><rect
       x="-713.94238"
       y="53.274414"
       width="41.495117"
       height="50.939453"
       id="rect12516-0" /><rect
       x="-871.94531"
       y="26.289062"
       width="75.125"
       height="108.80469"
       id="rect12460-3" /><rect
       x="-713.94238"
       y="53.274414"
       width="41.495117"
       height="50.939453"
       id="rect12516-6" /><rect
       x="-713.94238"
       y="53.274414"
       width="41.495117"
       height="50.939453"
       id="rect12516-0-8" /><rect
       x="-871.94531"
       y="26.289062"
       width="75.125"
       height="108.80469"
       id="rect12460-0" /><rect
       x="-713.94238"
       y="53.274414"
       width="41.495117"
       height="50.939453"
       id="rect12516-5" /><rect
       x="-713.94238"
       y="53.274414"
       width="41.495117"
       height="50.939453"
       id="rect12516-0-1" /><rect
       x="-871.94531"
       y="26.289062"
       width="75.125"
       height="108.80469"
       id="rect12460-5" /><rect
       x="-713.94238"
       y="53.274414"
       width="41.495117"
       height="50.939453"
       id="rect12516-06" /><rect
       x="-713.94238"
       y="53.274414"
       width="41.495117"
       height="50.939453"
       id="rect12516-0-4" /><rect
       x="-871.94531"
       y="26.289062"
       width="75.125"
       height="108.80469"
       id="rect12460-2" /><rect
       x="-713.94238"
       y="53.274414"
       width="41.495117"
       height="50.939453"
       id="rect12516-8" /><rect
       x="-713.94238"
       y="53.274414"
       width="41.495117"
       height="50.939453"
       id="rect12516-0-47" /><rect
       x="-871.94531"
       y="26.289062"
       width="75.125"
       height="108.80469"
       id="rect12460-6" /><rect
       x="-713.94238"
       y="53.274414"
       width="41.495117"
       height="50.939453"
       id="rect12516-2" /><rect
       x="-713.94238"
       y="53.274414"
       width="41.495117"
       height="50.939453"
       id="rect12516-0-9" /><rect
       x="-871.94531"
       y="26.289062"
       width="75.125"
       height="108.80469"
       id="rect12460-1" /><rect
       x="-713.94238"
       y="53.274414"
       width="41.495117"
       height="50.939453"
       id="rect12516-1" /><rect
       x="-713.94238"
       y="53.274414"
       width="41.495117"
       height="50.939453"
       id="rect12516-0-0" /><rect
       x="-871.94531"
       y="26.289062"
       width="75.125"
       height="108.80469"
       id="rect12460-9" /><rect
       x="-713.94238"
       y="53.274414"
       width="41.495117"
       height="50.939453"
       id="rect12516-19" /><rect
       x="-713.94238"
       y="53.274414"
       width="41.495117"
       height="50.939453"
       id="rect12516-0-6" /><rect
       x="-871.94531"
       y="26.289062"
       width="75.125"
       height="108.80469"
       id="rect12460-56" /><rect
       x="-713.94238"
       y="53.274414"
       width="41.495117"
       height="50.939453"
       id="rect12516-64" /><rect
       x="-713.94238"
       y="53.274414"
       width="41.495117"
       height="50.939453"
       id="rect12516-0-00" /><rect
       x="-871.94531"
       y="26.289062"
       width="75.125"
       height="108.80469"
       id="rect12460-7" /><rect
       x="-713.94238"
       y="53.274414"
       width="41.495117"
       height="50.939453"
       id="rect12516-56" /><rect
       x="-713.94238"
       y="53.274414"
       width="41.495117"
       height="50.939453"
       id="rect12516-0-98" /><rect
       x="-871.94531"
       y="26.289062"
       width="75.125"
       height="108.80469"
       id="rect12460-99" /><rect
       x="-713.94238"
       y="53.274414"
       width="41.495117"
       height="50.939453"
       id="rect12516-60" /><rect
       x="-713.94238"
       y="53.274414"
       width="41.495117"
       height="50.939453"
       id="rect12516-0-2" /><rect
       x="-871.94531"
       y="26.289062"
       width="75.125"
       height="108.80469"
       id="rect12460-15" /><rect
       x="-713.94238"
       y="53.274414"
       width="41.495117"
       height="50.939453"
       id="rect12516-9" /><rect
       x="-713.94238"
       y="53.274414"
       width="41.495117"
       height="50.939453"
       id="rect12516-0-91" /><rect
       x="-871.94531"
       y="26.289062"
       width="75.125"
       height="108.80469"
       id="rect12460-58" /><rect
       x="-713.94238"
       y="53.274414"
       width="41.495117"
       height="50.939453"
       id="rect12516-7" /><rect
       x="-713.94238"
       y="53.274414"
       width="41.495117"
       height="50.939453"
       id="rect12516-0-04" /><rect
       x="-871.94531"
       y="26.289062"
       width="75.125"
       height="108.80469"
       id="rect12460-61" /><rect
       x="-713.94238"
       y="53.274414"
       width="41.495117"
       height="50.939453"
       id="rect12516-04" /><rect
       x="-713.94238"
       y="53.274414"
       width="41.495117"
       height="50.939453"
       id="rect12516-0-22" /><rect
       x="-871.94531"
       y="26.289062"
       width="75.125"
       height="108.80469"
       id="rect12460-29" /><rect
       x="-713.94238"
       y="53.274414"
       width="41.495117"
       height="50.939453"
       id="rect12516-02" /><rect
       x="-713.94238"
       y="53.274414"
       width="41.495117"
       height="50.939453"
       id="rect12516-0-83" /><rect
       x="-871.94531"
       y="26.289062"
       width="75.125"
       height="108.80469"
       id="rect12460-62" /><rect
       x="-713.94238"
       y="53.274414"
       width="41.495117"
       height="50.939453"
       id="rect12516-54" /><rect
       x="-713.94238"
       y="53.274414"
       width="41.495117"
       height="50.939453"
       id="rect12516-0-49" /><rect
       x="-871.94531"
       y="26.289062"
       width="75.125"
       height="108.80469"
       id="rect12460-99-7" /><rect
       x="-713.94238"
       y="53.274414"
       width="41.495117"
       height="50.939453"
       id="rect12516-60-3" /><rect
       x="-713.94238"
       y="53.274414"
       width="41.495117"
       height="50.939453"
       id="rect12516-0-2-2" /><rect
       x="-713.94238"
       y="53.274414"
       width="41.495117"
       height="50.939453"
       id="rect12516-60-3-9" /><rect
       x="-713.94238"
       y="53.274414"
       width="41.495117"
       height="50.939453"
       id="rect12516-0-2-2-3" /><rect
       x="-713.94238"
       y="53.274414"
       width="41.495117"
       height="50.939453"
       id="rect12516-60-3-9-9" /><rect
       x="-713.94238"
       y="53.274414"
       width="41.495117"
       height="50.939453"
       id="rect12516-60-3-9-7" /><rect
       x="-713.94238"
       y="53.274414"
       width="41.495117"
       height="50.939453"
       id="rect12516-60-3-9-7-4" /><rect
       x="-871.94531"
       y="26.289062"
       width="75.125"
       height="108.80469"
       id="rect12460-3-0" /><rect
       x="-713.94238"
       y="53.274414"
       width="41.495117"
       height="50.939453"
       id="rect3813" /><rect
       x="-871.94531"
       y="26.289062"
       width="75.125"
       height="108.80469"
       id="rect12460-3-7" /><rect
       x="-713.94238"
       y="53.274414"
       width="41.495117"
       height="50.939453"
       id="rect3813-3" /><rect
       x="-713.94238"
       y="53.274414"
       width="41.495117"
       height="50.939453"
       id="rect12516-6-7" /><rect
       x="-871.94531"
       y="26.289062"
       width="75.125"
       height="108.80469"
       id="rect12460-3-4" /><rect
       x="-713.94238"
       y="53.274414"
       width="41.495117"
       height="50.939453"
       id="rect12516-60-3-9-7-43" /><rect
       x="-713.94238"
       y="53.274414"
       width="41.495117"
       height="50.939453"
       id="rect12516-60-3-9-7-4-1" /></defs><g
     id="layer1"
     transform="translate(2.215018,12.290957)"><g
       id="g36199"
       transform="translate(-298.09496,207.98639)"><rect
         style="fill:#000000;fill-opacity:1;stroke:none;stroke-width:10;stroke-linecap:round;stroke-linejoin:round"
         id="rect231-35-5-6-8"
         width="62"
         height="88"
         x="295.87994"
         y="-220.27734"
         ry="4.0317755" /><g
         aria-label="+4"
         transform="matrix(0.92535228,0,0,0.92535228,958.64473,-263.26032)"
         id="text12514-1-5-3"
         style="font-size:10.6667px;line-height:1.25;white-space:pre;shape-inside:url(#rect12516-60-3-9);display:inline;fill:#ffffff"><path
           d="m -710.4694,56.974783 v 2.27734 h 2.17068 v 0.720002 h -2.17068 v 2.293341 h -0.77866 v -2.293341 h -2.16001 v -0.720002 h 2.16001 v -2.27734 z"
           style="font-family:Lato;-inkscape-font-specification:'Lato, Normal'"
           id="path467" /><path
           d="m -702.93871,60.436127 h 1.15734 v 0.544002 q 0,0.08533 -0.0533,0.144 -0.048,0.05867 -0.15467,0.05867 h -0.94934 v 2.010673 h -0.83733 v -2.010673 h -3.38668 q -0.10667,0 -0.18667,-0.05867 -0.0747,-0.064 -0.096,-0.154667 l -0.096,-0.485335 3.71735,-4.933349 h 0.88533 z m -0.83733,-3.15201 q 0,-0.138667 0.005,-0.298668 0.0107,-0.16 0.0373,-0.330667 l -2.77868,3.781345 h 2.73601 z"
           style="font-family:Lato;-inkscape-font-specification:'Lato, Normal'"
           id="path469" /></g><g
         aria-label="+4"
         transform="matrix(-0.92535228,0,0,-0.92535228,-304.88481,-89.294347)"
         id="text12514-1-5-3-4"
         style="font-size:10.6667px;line-height:1.25;white-space:pre;shape-inside:url(#rect12516-60-3-9-9);display:inline;fill:#ffffff"><path
           d="m -710.4694,56.974783 v 2.27734 h 2.17068 v 0.720002 h -2.17068 v 2.293341 h -0.77866 v -2.293341 h -2.16001 v -0.720002 h 2.16001 v -2.27734 z"
           style="font-family:Lato;-inkscape-font-specification:'Lato, Normal'"
           id="path472" /><path
           d="m -702.93871,60.436127 h 1.15734 v 0.544002 q 0,0.08533 -0.0533,0.144 -0.048,0.05867 -0.15467,0.05867 h -0.94934 v 2.010673 h -0.83733 v -2.010673 h -3.38668 q -0.10667,0 -0.18667,-0.05867 -0.0747,-0.064 -0.096,-0.154667 l -0.096,-0.485335 3.71735,-4.933349 h 0.88533 z m -0.83733,-3.15201 q 0,-0.138667 0.005,-0.298668 0.0107,-0.16 0.0373,-0.330667 l -2.77868,3.781345 h 2.73601 z"
           style="font-family:Lato;-inkscape-font-specification:'Lato, Normal'"
           id="path474" /></g><g
         id="g20472"
         transform="translate(-382.74938,149.38803)"
         style="stroke-width:1;stroke-dasharray:none"><path
           id="rect231-0-1"
           style="fill:none;stroke:#85c040;stroke-width:1;stroke-linecap:round;stroke-linejoin:round;stroke-dasharray:none;stroke-opacity:1"
           d="m 697.62544,-325.85678 c -0.30222,0 -0.54545,0.24323 -0.54545,0.54545 v 10.81593 c 0,0.30222 0.24323,0.54545 0.54545,0.54545 h 7.29801 c 0.30221,0 0.54545,-0.24323 0.54545,-0.54545 v -9.49275 h -2.97248 c -0.30222,0 -0.54545,-0.24323 -0.54545,-0.54544 v -1.32319 z" /><path
           id="rect231-33-0"
           style="fill:none;stroke:#0a77b8;stroke-width:1;stroke-linecap:round;stroke-linejoin:round;stroke-dasharray:none;stroke-opacity:1"
           d="m 702.49702,-335.89512 c -0.30222,0 -0.54687,0.2427 -0.54687,0.54492 v 10.8164 c 0,0.30222 0.24465,0.54493 0.54687,0.54493 h 6.42188 v -2.8086 c 0,-0.30222 0.2427,-0.54492 0.54492,-0.54492 h 0.87695 v -8.00781 c 0,-0.30222 -0.24466,-0.54492 -0.54687,-0.54492 z" /><path
           id="rect231-0-7"
           style="fill:none;stroke:#da3e28;stroke-width:1;stroke-linecap:round;stroke-linejoin:round;stroke-dasharray:none;stroke-opacity:1"
           d="m 709.46433,-327.34259 c -0.30222,0 -0.54545,0.24323 -0.54545,0.54545 v 10.81593 c 0,0.30222 0.24323,0.54545 0.54545,0.54545 h 7.29801 c 0.30221,0 0.54545,-0.24323 0.54545,-0.54545 v -9.49275 h -2.97248 c -0.30222,0 -0.54545,-0.24323 -0.54545,-0.54544 v -1.32319 z" /><rect
           style="fill:none;stroke:#ffd237;stroke-width:1;stroke-linecap:round;stroke-linejoin:round;stroke-dasharray:none;stroke-opacity:1"
           id="rect231-33-08"
           width="8.3889008"
           height="11.906827"
           x="713.78979"
           y="-337.3808"
           ry="0.54551876" /></g></g></g></svg>
