<?xml version="1.0" encoding="UTF-8" standalone="no"?>
<!-- Created with Inkscape (http://www.inkscape.org/) -->

<svg
   width="62"
   height="88"
   viewBox="0 0 62 88"
   version="1.1"
   id="svg5"
   xml:space="preserve"
   xmlns="http://www.w3.org/2000/svg"
   xmlns:svg="http://www.w3.org/2000/svg"><defs
     id="defs2"><rect
       x="-713.94238"
       y="53.274414"
       width="41.495117"
       height="50.939453"
       id="rect12516" /><rect
       x="-871.94531"
       y="26.289062"
       width="75.125"
       height="108.80469"
       id="rect12460" /><rect
       x="-713.94238"
       y="53.274414"
       width="41.495117"
       height="50.939453"
       id="rect12516-0" /><rect
       x="-871.94531"
       y="26.289062"
       width="75.125"
       height="108.80469"
       id="rect12460-3" /><rect
       x="-713.94238"
       y="53.274414"
       width="41.495117"
       height="50.939453"
       id="rect12516-6" /><rect
       x="-713.94238"
       y="53.274414"
       width="41.495117"
       height="50.939453"
       id="rect12516-0-8" /><rect
       x="-871.94531"
       y="26.289062"
       width="75.125"
       height="108.80469"
       id="rect12460-0" /><rect
       x="-713.94238"
       y="53.274414"
       width="41.495117"
       height="50.939453"
       id="rect12516-5" /><rect
       x="-713.94238"
       y="53.274414"
       width="41.495117"
       height="50.939453"
       id="rect12516-0-1" /><rect
       x="-871.94531"
       y="26.289062"
       width="75.125"
       height="108.80469"
       id="rect12460-5" /><rect
       x="-713.94238"
       y="53.274414"
       width="41.495117"
       height="50.939453"
       id="rect12516-06" /><rect
       x="-713.94238"
       y="53.274414"
       width="41.495117"
       height="50.939453"
       id="rect12516-0-4" /><rect
       x="-871.94531"
       y="26.289062"
       width="75.125"
       height="108.80469"
       id="rect12460-2" /><rect
       x="-713.94238"
       y="53.274414"
       width="41.495117"
       height="50.939453"
       id="rect12516-8" /><rect
       x="-713.94238"
       y="53.274414"
       width="41.495117"
       height="50.939453"
       id="rect12516-0-47" /><rect
       x="-871.94531"
       y="26.289062"
       width="75.125"
       height="108.80469"
       id="rect12460-6" /><rect
       x="-713.94238"
       y="53.274414"
       width="41.495117"
       height="50.939453"
       id="rect12516-2" /><rect
       x="-713.94238"
       y="53.274414"
       width="41.495117"
       height="50.939453"
       id="rect12516-0-9" /><rect
       x="-871.94531"
       y="26.289062"
       width="75.125"
       height="108.80469"
       id="rect12460-1" /><rect
       x="-713.94238"
       y="53.274414"
       width="41.495117"
       height="50.939453"
       id="rect12516-1" /><rect
       x="-713.94238"
       y="53.274414"
       width="41.495117"
       height="50.939453"
       id="rect12516-0-0" /><rect
       x="-871.94531"
       y="26.289062"
       width="75.125"
       height="108.80469"
       id="rect12460-9" /><rect
       x="-713.94238"
       y="53.274414"
       width="41.495117"
       height="50.939453"
       id="rect12516-19" /><rect
       x="-713.94238"
       y="53.274414"
       width="41.495117"
       height="50.939453"
       id="rect12516-0-6" /><rect
       x="-871.94531"
       y="26.289062"
       width="75.125"
       height="108.80469"
       id="rect12460-56" /><rect
       x="-713.94238"
       y="53.274414"
       width="41.495117"
       height="50.939453"
       id="rect12516-64" /><rect
       x="-713.94238"
       y="53.274414"
       width="41.495117"
       height="50.939453"
       id="rect12516-0-00" /><rect
       x="-871.94531"
       y="26.289062"
       width="75.125"
       height="108.80469"
       id="rect12460-7" /><rect
       x="-713.94238"
       y="53.274414"
       width="41.495117"
       height="50.939453"
       id="rect12516-56" /><rect
       x="-713.94238"
       y="53.274414"
       width="41.495117"
       height="50.939453"
       id="rect12516-0-98" /><rect
       x="-871.94531"
       y="26.289062"
       width="75.125"
       height="108.80469"
       id="rect12460-99" /><rect
       x="-713.94238"
       y="53.274414"
       width="41.495117"
       height="50.939453"
       id="rect12516-60" /><rect
       x="-713.94238"
       y="53.274414"
       width="41.495117"
       height="50.939453"
       id="rect12516-0-2" /><rect
       x="-871.94531"
       y="26.289062"
       width="75.125"
       height="108.80469"
       id="rect12460-15" /><rect
       x="-713.94238"
       y="53.274414"
       width="41.495117"
       height="50.939453"
       id="rect12516-9" /><rect
       x="-713.94238"
       y="53.274414"
       width="41.495117"
       height="50.939453"
       id="rect12516-0-91" /><rect
       x="-871.94531"
       y="26.289062"
       width="75.125"
       height="108.80469"
       id="rect12460-58" /><rect
       x="-713.94238"
       y="53.274414"
       width="41.495117"
       height="50.939453"
       id="rect12516-7" /><rect
       x="-713.94238"
       y="53.274414"
       width="41.495117"
       height="50.939453"
       id="rect12516-0-04" /><rect
       x="-871.94531"
       y="26.289062"
       width="75.125"
       height="108.80469"
       id="rect12460-61" /><rect
       x="-713.94238"
       y="53.274414"
       width="41.495117"
       height="50.939453"
       id="rect12516-04" /><rect
       x="-713.94238"
       y="53.274414"
       width="41.495117"
       height="50.939453"
       id="rect12516-0-22" /><rect
       x="-871.94531"
       y="26.289062"
       width="75.125"
       height="108.80469"
       id="rect12460-29" /><rect
       x="-713.94238"
       y="53.274414"
       width="41.495117"
       height="50.939453"
       id="rect12516-02" /><rect
       x="-713.94238"
       y="53.274414"
       width="41.495117"
       height="50.939453"
       id="rect12516-0-83" /><rect
       x="-871.94531"
       y="26.289062"
       width="75.125"
       height="108.80469"
       id="rect12460-62" /><rect
       x="-713.94238"
       y="53.274414"
       width="41.495117"
       height="50.939453"
       id="rect12516-54" /><rect
       x="-713.94238"
       y="53.274414"
       width="41.495117"
       height="50.939453"
       id="rect12516-0-49" /><rect
       x="-871.94531"
       y="26.289062"
       width="75.125"
       height="108.80469"
       id="rect12460-99-7" /><rect
       x="-713.94238"
       y="53.274414"
       width="41.495117"
       height="50.939453"
       id="rect12516-60-3" /><rect
       x="-713.94238"
       y="53.274414"
       width="41.495117"
       height="50.939453"
       id="rect12516-0-2-2" /><rect
       x="-713.94238"
       y="53.274414"
       width="41.495117"
       height="50.939453"
       id="rect12516-60-3-9" /><rect
       x="-713.94238"
       y="53.274414"
       width="41.495117"
       height="50.939453"
       id="rect12516-0-2-2-3" /><rect
       x="-713.94238"
       y="53.274414"
       width="41.495117"
       height="50.939453"
       id="rect12516-60-3-9-9" /><rect
       x="-713.94238"
       y="53.274414"
       width="41.495117"
       height="50.939453"
       id="rect12516-60-3-9-7" /><rect
       x="-713.94238"
       y="53.274414"
       width="41.495117"
       height="50.939453"
       id="rect12516-60-3-9-7-4" /><rect
       x="-871.94531"
       y="26.289062"
       width="75.125"
       height="108.80469"
       id="rect12460-3-0" /><rect
       x="-713.94238"
       y="53.274414"
       width="41.495117"
       height="50.939453"
       id="rect3813" /><rect
       x="-871.94531"
       y="26.289062"
       width="75.125"
       height="108.80469"
       id="rect12460-3-7" /><rect
       x="-713.94238"
       y="53.274414"
       width="41.495117"
       height="50.939453"
       id="rect3813-3" /><rect
       x="-713.94238"
       y="53.274414"
       width="41.495117"
       height="50.939453"
       id="rect12516-6-7" /><rect
       x="-871.94531"
       y="26.289062"
       width="75.125"
       height="108.80469"
       id="rect12460-3-4" /><rect
       x="-713.94238"
       y="53.274414"
       width="41.495117"
       height="50.939453"
       id="rect12516-60-3-9-7-43" /><rect
       x="-713.94238"
       y="53.274414"
       width="41.495117"
       height="50.939453"
       id="rect12516-60-3-9-7-4-1" /></defs><g
     id="layer1"
     transform="translate(2.215018,12.290957)"><g
       id="g2042"
       transform="translate(-186.78889,150.06602)"><rect
         style="fill:#ff17ef;fill-opacity:1;stroke:none;stroke-width:10;stroke-linecap:round;stroke-linejoin:round"
         id="rect231-35-5-6"
         width="62"
         height="88"
         x="184.57387"
         y="-162.35698"
         ry="4.0317755" /><g
         aria-label="+2"
         transform="matrix(0.92535228,0,0,0.92535228,847.4867,-205.30047)"
         id="text12514-1-5-3-8"
         style="font-size:10.6667px;line-height:1.25;white-space:pre;shape-inside:url(#rect12516-60-3-9-7);display:inline;fill:#ffffff;fill-opacity:1"><path
           d="m -710.4694,56.974783 v 2.27734 h 2.17068 v 0.720002 h -2.17068 v 2.293341 h -0.77866 v -2.293341 h -2.16001 v -0.720002 h 2.16001 v -2.27734 z"
           style="font-family:Lato;-inkscape-font-specification:'Lato, Normal';fill:#ffffff;fill-opacity:1"
           id="path363" /><path
           d="m -704.54938,55.465444 q 0.48534,0 0.90667,0.144001 0.42134,0.144 0.72534,0.421335 0.30933,0.272 0.48533,0.666668 0.176,0.394668 0.176,0.896003 0,0.426668 -0.128,0.789336 -0.128,0.362668 -0.34666,0.698669 -0.21867,0.330668 -0.50667,0.645335 -0.28267,0.309335 -0.60267,0.634669 l -2.01067,2.058673 q 0.21333,-0.05867 0.432,-0.09067 0.21866,-0.03733 0.42133,-0.03733 h 2.56001 q 0.15467,0 0.24533,0.09067 0.0907,0.09067 0.0907,0.234667 v 0.576002 h -5.09868 v -0.325335 q 0,-0.101333 0.0373,-0.208 0.0427,-0.106667 0.13333,-0.197334 l 2.44801,-2.458675 q 0.304,-0.309334 0.55467,-0.592001 0.25067,-0.288001 0.42667,-0.576002 0.18133,-0.288001 0.27733,-0.581335 0.096,-0.298668 0.096,-0.634669 0,-0.336001 -0.10666,-0.586669 -0.10667,-0.256 -0.29334,-0.421334 -0.18666,-0.165334 -0.43733,-0.245334 -0.25067,-0.08533 -0.53867,-0.08533 -0.288,0 -0.53334,0.08533 -0.24533,0.08533 -0.43733,0.24 -0.18667,0.149334 -0.32,0.357335 -0.128,0.208 -0.18134,0.458668 -0.0427,0.154667 -0.128,0.224001 -0.0853,0.06933 -0.224,0.06933 -0.0267,0 -0.0587,0 -0.0267,-0.0053 -0.064,-0.01067 l -0.49601,-0.08533 q 0.0747,-0.522668 0.28801,-0.92267 0.21333,-0.405334 0.53866,-0.677335 0.33067,-0.272001 0.75201,-0.410668 0.42666,-0.144001 0.91733,-0.144001 z"
           style="font-family:Lato;-inkscape-font-specification:'Lato, Normal';fill:#ffffff;fill-opacity:1"
           id="path365" /></g><g
         aria-label="+2"
         transform="matrix(-0.92535228,0,0,-0.92535228,-416.33896,-31.41347)"
         id="text12514-1-5-3-8-5"
         style="font-size:10.6667px;line-height:1.25;white-space:pre;shape-inside:url(#rect12516-60-3-9-7-4);display:inline;fill:#ffffff"><path
           d="m -710.4694,56.974783 v 2.27734 h 2.17068 v 0.720002 h -2.17068 v 2.293341 h -0.77866 v -2.293341 h -2.16001 v -0.720002 h 2.16001 v -2.27734 z"
           style="font-family:Lato;-inkscape-font-specification:'Lato, Normal';fill:#ffffff;fill-opacity:1"
           id="path368" /><path
           d="m -704.54938,55.465444 q 0.48534,0 0.90667,0.144001 0.42134,0.144 0.72534,0.421335 0.30933,0.272 0.48533,0.666668 0.176,0.394668 0.176,0.896003 0,0.426668 -0.128,0.789336 -0.128,0.362668 -0.34666,0.698669 -0.21867,0.330668 -0.50667,0.645335 -0.28267,0.309335 -0.60267,0.634669 l -2.01067,2.058673 q 0.21333,-0.05867 0.432,-0.09067 0.21866,-0.03733 0.42133,-0.03733 h 2.56001 q 0.15467,0 0.24533,0.09067 0.0907,0.09067 0.0907,0.234667 v 0.576002 h -5.09868 v -0.325335 q 0,-0.101333 0.0373,-0.208 0.0427,-0.106667 0.13333,-0.197334 l 2.44801,-2.458675 q 0.304,-0.309334 0.55467,-0.592001 0.25067,-0.288001 0.42667,-0.576002 0.18133,-0.288001 0.27733,-0.581335 0.096,-0.298668 0.096,-0.634669 0,-0.336001 -0.10666,-0.586669 -0.10667,-0.256 -0.29334,-0.421334 -0.18666,-0.165334 -0.43733,-0.245334 -0.25067,-0.08533 -0.53867,-0.08533 -0.288,0 -0.53334,0.08533 -0.24533,0.08533 -0.43733,0.24 -0.18667,0.149334 -0.32,0.357335 -0.128,0.208 -0.18134,0.458668 -0.0427,0.154667 -0.128,0.224001 -0.0853,0.06933 -0.224,0.06933 -0.0267,0 -0.0587,0 -0.0267,-0.0053 -0.064,-0.01067 l -0.49601,-0.08533 q 0.0747,-0.522668 0.28801,-0.92267 0.21333,-0.405334 0.53866,-0.677335 0.33067,-0.272001 0.75201,-0.410668 0.42666,-0.144001 0.91733,-0.144001 z"
           style="font-family:Lato;-inkscape-font-specification:'Lato, Normal';fill:#ffffff;fill-opacity:1"
           id="path370" /></g><g
         id="g19628"
         transform="matrix(0.13530485,0,0,0.13530485,201.04635,-145.70456)"
         style="stroke-width:8.12979;stroke-dasharray:none"><path
           id="rect231-0"
           style="fill:none;stroke:#ffffff;stroke-width:8.12979;stroke-linecap:round;stroke-linejoin:round;stroke-dasharray:none;stroke-opacity:1"
           d="m 62.400216,195.21295 c -2.233601,0 -4.03125,1.79765 -4.03125,4.03125 v 79.9375 c 0,2.2336 1.797649,4.03125 4.03125,4.03125 h 53.937504 c 2.2336,0 4.03125,-1.79765 4.03125,-4.03125 V 209.0235 H 98.400216 c -2.233601,0 -4.03125,-1.79765 -4.03125,-4.03125 v -9.7793 z" /><rect
           style="fill:none;stroke:#ffffff;stroke-width:8.12979;stroke-linecap:round;stroke-linejoin:round;stroke-dasharray:none;stroke-opacity:1"
           id="rect231-33"
           width="62"
           height="88"
           x="94.368614"
           y="121.02351"
           ry="4.0317755" /></g></g></g></svg>
