<?xml version="1.0" encoding="UTF-8" standalone="no"?>
<!-- Created with Inkscape (http://www.inkscape.org/) -->

<svg
   width="62"
   height="88"
   viewBox="0 0 62 88"
   version="1.1"
   id="svg5"
   xml:space="preserve"
   xmlns="http://www.w3.org/2000/svg"
   xmlns:svg="http://www.w3.org/2000/svg"><defs
     id="defs2"><rect
       x="-713.94238"
       y="53.274414"
       width="41.495117"
       height="50.939453"
       id="rect12516" /><rect
       x="-871.94531"
       y="26.289062"
       width="75.125"
       height="108.80469"
       id="rect12460" /><rect
       x="-713.94238"
       y="53.274414"
       width="41.495117"
       height="50.939453"
       id="rect12516-0" /><rect
       x="-871.94531"
       y="26.289062"
       width="75.125"
       height="108.80469"
       id="rect12460-3" /><rect
       x="-713.94238"
       y="53.274414"
       width="41.495117"
       height="50.939453"
       id="rect12516-6" /><rect
       x="-713.94238"
       y="53.274414"
       width="41.495117"
       height="50.939453"
       id="rect12516-0-8" /><rect
       x="-871.94531"
       y="26.289062"
       width="75.125"
       height="108.80469"
       id="rect12460-0" /><rect
       x="-713.94238"
       y="53.274414"
       width="41.495117"
       height="50.939453"
       id="rect12516-5" /><rect
       x="-713.94238"
       y="53.274414"
       width="41.495117"
       height="50.939453"
       id="rect12516-0-1" /><rect
       x="-871.94531"
       y="26.289062"
       width="75.125"
       height="108.80469"
       id="rect12460-5" /><rect
       x="-713.94238"
       y="53.274414"
       width="41.495117"
       height="50.939453"
       id="rect12516-06" /><rect
       x="-713.94238"
       y="53.274414"
       width="41.495117"
       height="50.939453"
       id="rect12516-0-4" /><rect
       x="-871.94531"
       y="26.289062"
       width="75.125"
       height="108.80469"
       id="rect12460-2" /><rect
       x="-713.94238"
       y="53.274414"
       width="41.495117"
       height="50.939453"
       id="rect12516-8" /><rect
       x="-713.94238"
       y="53.274414"
       width="41.495117"
       height="50.939453"
       id="rect12516-0-47" /><rect
       x="-871.94531"
       y="26.289062"
       width="75.125"
       height="108.80469"
       id="rect12460-6" /><rect
       x="-713.94238"
       y="53.274414"
       width="41.495117"
       height="50.939453"
       id="rect12516-2" /><rect
       x="-713.94238"
       y="53.274414"
       width="41.495117"
       height="50.939453"
       id="rect12516-0-9" /><rect
       x="-871.94531"
       y="26.289062"
       width="75.125"
       height="108.80469"
       id="rect12460-1" /><rect
       x="-713.94238"
       y="53.274414"
       width="41.495117"
       height="50.939453"
       id="rect12516-1" /><rect
       x="-713.94238"
       y="53.274414"
       width="41.495117"
       height="50.939453"
       id="rect12516-0-0" /><rect
       x="-871.94531"
       y="26.289062"
       width="75.125"
       height="108.80469"
       id="rect12460-9" /><rect
       x="-713.94238"
       y="53.274414"
       width="41.495117"
       height="50.939453"
       id="rect12516-19" /><rect
       x="-713.94238"
       y="53.274414"
       width="41.495117"
       height="50.939453"
       id="rect12516-0-6" /><rect
       x="-871.94531"
       y="26.289062"
       width="75.125"
       height="108.80469"
       id="rect12460-56" /><rect
       x="-713.94238"
       y="53.274414"
       width="41.495117"
       height="50.939453"
       id="rect12516-64" /><rect
       x="-713.94238"
       y="53.274414"
       width="41.495117"
       height="50.939453"
       id="rect12516-0-00" /><rect
       x="-871.94531"
       y="26.289062"
       width="75.125"
       height="108.80469"
       id="rect12460-7" /><rect
       x="-713.94238"
       y="53.274414"
       width="41.495117"
       height="50.939453"
       id="rect12516-56" /><rect
       x="-713.94238"
       y="53.274414"
       width="41.495117"
       height="50.939453"
       id="rect12516-0-98" /><rect
       x="-871.94531"
       y="26.289062"
       width="75.125"
       height="108.80469"
       id="rect12460-99" /><rect
       x="-713.94238"
       y="53.274414"
       width="41.495117"
       height="50.939453"
       id="rect12516-60" /><rect
       x="-713.94238"
       y="53.274414"
       width="41.495117"
       height="50.939453"
       id="rect12516-0-2" /><rect
       x="-871.94531"
       y="26.289062"
       width="75.125"
       height="108.80469"
       id="rect12460-15" /><rect
       x="-713.94238"
       y="53.274414"
       width="41.495117"
       height="50.939453"
       id="rect12516-9" /><rect
       x="-713.94238"
       y="53.274414"
       width="41.495117"
       height="50.939453"
       id="rect12516-0-91" /><rect
       x="-871.94531"
       y="26.289062"
       width="75.125"
       height="108.80469"
       id="rect12460-58" /><rect
       x="-713.94238"
       y="53.274414"
       width="41.495117"
       height="50.939453"
       id="rect12516-7" /><rect
       x="-713.94238"
       y="53.274414"
       width="41.495117"
       height="50.939453"
       id="rect12516-0-04" /><rect
       x="-871.94531"
       y="26.289062"
       width="75.125"
       height="108.80469"
       id="rect12460-61" /><rect
       x="-713.94238"
       y="53.274414"
       width="41.495117"
       height="50.939453"
       id="rect12516-04" /><rect
       x="-713.94238"
       y="53.274414"
       width="41.495117"
       height="50.939453"
       id="rect12516-0-22" /><rect
       x="-871.94531"
       y="26.289062"
       width="75.125"
       height="108.80469"
       id="rect12460-29" /><rect
       x="-713.94238"
       y="53.274414"
       width="41.495117"
       height="50.939453"
       id="rect12516-02" /><rect
       x="-713.94238"
       y="53.274414"
       width="41.495117"
       height="50.939453"
       id="rect12516-0-83" /><rect
       x="-871.94531"
       y="26.289062"
       width="75.125"
       height="108.80469"
       id="rect12460-62" /><rect
       x="-713.94238"
       y="53.274414"
       width="41.495117"
       height="50.939453"
       id="rect12516-54" /><rect
       x="-713.94238"
       y="53.274414"
       width="41.495117"
       height="50.939453"
       id="rect12516-0-49" /><rect
       x="-871.94531"
       y="26.289062"
       width="75.125"
       height="108.80469"
       id="rect12460-99-7" /><rect
       x="-713.94238"
       y="53.274414"
       width="41.495117"
       height="50.939453"
       id="rect12516-60-3" /><rect
       x="-713.94238"
       y="53.274414"
       width="41.495117"
       height="50.939453"
       id="rect12516-0-2-2" /><rect
       x="-713.94238"
       y="53.274414"
       width="41.495117"
       height="50.939453"
       id="rect12516-60-3-9" /><rect
       x="-713.94238"
       y="53.274414"
       width="41.495117"
       height="50.939453"
       id="rect12516-0-2-2-3" /><rect
       x="-713.94238"
       y="53.274414"
       width="41.495117"
       height="50.939453"
       id="rect12516-60-3-9-9" /><rect
       x="-713.94238"
       y="53.274414"
       width="41.495117"
       height="50.939453"
       id="rect12516-60-3-9-7" /><rect
       x="-713.94238"
       y="53.274414"
       width="41.495117"
       height="50.939453"
       id="rect12516-60-3-9-7-4" /><rect
       x="-871.94531"
       y="26.289062"
       width="75.125"
       height="108.80469"
       id="rect12460-3-0" /><rect
       x="-713.94238"
       y="53.274414"
       width="41.495117"
       height="50.939453"
       id="rect3813" /><rect
       x="-871.94531"
       y="26.289062"
       width="75.125"
       height="108.80469"
       id="rect12460-3-7" /><rect
       x="-713.94238"
       y="53.274414"
       width="41.495117"
       height="50.939453"
       id="rect3813-3" /><rect
       x="-713.94238"
       y="53.274414"
       width="41.495117"
       height="50.939453"
       id="rect12516-6-7" /><rect
       x="-871.94531"
       y="26.289062"
       width="75.125"
       height="108.80469"
       id="rect12460-3-4" /><rect
       x="-713.94238"
       y="53.274414"
       width="41.495117"
       height="50.939453"
       id="rect12516-60-3-9-7-43" /><rect
       x="-713.94238"
       y="53.274414"
       width="41.495117"
       height="50.939453"
       id="rect12516-60-3-9-7-4-1" /></defs><g
     id="layer1"
     transform="translate(2.215018,12.290957)"><g
       id="g1582"
       transform="translate(-121.6434,271.01443)"><path
         id="rect231-35-5"
         style="fill:#ff17ef;stroke-width:10;stroke-linecap:round;stroke-linejoin:round"
         d="m 123.46016,-283.30539 h 53.93645 c 2.2336,0 4.03177,1.79817 4.03177,4.03178 v 79.93645 c 0,2.2336 -1.79817,4.03177 -4.03177,4.03177 h -53.93645 c -2.23361,0 -4.03178,-1.79817 -4.03178,-4.03177 v -79.93645 c 0,-2.23361 1.79817,-4.03178 4.03178,-4.03178 z" /><g
         aria-label="3"
         transform="translate(838.21883,-330.72036)"
         id="text12514-1"
         style="font-size:10.6667px;line-height:1.25;white-space:pre;shape-inside:url(#rect12516-60);display:inline;fill:#ffffff"><path
           d="m -710.63473,55.465444 q 0.48534,0 0.896,0.138668 0.41067,0.138667 0.70401,0.394667 0.29866,0.256001 0.464,0.618669 0.16533,0.362668 0.16533,0.805336 0,0.362668 -0.096,0.650669 -0.0907,0.282667 -0.26667,0.501335 -0.17066,0.213334 -0.416,0.362667 -0.24533,0.149334 -0.54933,0.240001 0.74667,0.197334 1.12,0.661336 0.37867,0.464001 0.37867,1.16267 0,0.528002 -0.20267,0.949336 -0.19733,0.421335 -0.544,0.720003 -0.34667,0.293334 -0.81067,0.453334 -0.45867,0.154667 -0.98667,0.154667 -0.608,0 -1.04,-0.149333 -0.432,-0.154668 -0.73067,-0.421335 -0.29867,-0.266668 -0.49067,-0.629335 -0.192,-0.368002 -0.32533,-0.79467 l 0.40533,-0.170667 q 0.112,-0.048 0.224,-0.048 0.10667,0 0.18667,0.048 0.0853,0.04267 0.128,0.138667 0.0107,0.02133 0.0213,0.048 0.0107,0.02133 0.0213,0.048 0.0747,0.154667 0.18133,0.352001 0.10667,0.192 0.288,0.362668 0.18133,0.170667 0.448,0.288001 0.272,0.117333 0.672,0.117333 0.4,0 0.69867,-0.128 0.304,-0.133334 0.50134,-0.341335 0.20266,-0.208 0.304,-0.464001 0.10133,-0.256001 0.10133,-0.506668 0,-0.309335 -0.0853,-0.565335 -0.08,-0.256001 -0.29867,-0.442669 -0.21333,-0.186667 -0.59733,-0.293334 -0.37867,-0.106667 -0.97601,-0.106667 v -0.688002 q 0.48534,-0.0053 0.82667,-0.106667 0.34667,-0.101334 0.56534,-0.277334 0.21866,-0.176001 0.31466,-0.421335 0.10134,-0.245334 0.10134,-0.544002 0,-0.330667 -0.10667,-0.576001 -0.10133,-0.245334 -0.28267,-0.405335 -0.18133,-0.16 -0.432,-0.240001 -0.24533,-0.08 -0.53333,-0.08 -0.288,0 -0.53334,0.08533 -0.24533,0.08533 -0.43733,0.24 -0.18667,0.149334 -0.31467,0.362668 -0.128,0.208001 -0.192,0.453335 -0.0427,0.154667 -0.128,0.224001 -0.0853,0.06933 -0.21867,0.06933 -0.0267,0 -0.0587,0 -0.0267,-0.0053 -0.064,-0.01067 l -0.496,-0.08533 q 0.0747,-0.522668 0.288,-0.92267 0.21334,-0.405334 0.53867,-0.677335 0.33067,-0.272001 0.752,-0.410668 0.42667,-0.144001 0.91734,-0.144001 z"
           style="font-family:Lato;-inkscape-font-specification:'Lato, Normal'"
           id="path52478" /></g><g
         aria-label="3"
         transform="translate(1013.735,-282.36577)"
         id="text12458-76"
         style="font-size:29.3333px;line-height:1.25;white-space:pre;shape-inside:url(#rect12460-99);display:inline;fill:#ffffff"><path
           d="m -862.85199,32.317056 q 1.33467,0 2.464,0.381332 1.12933,0.381333 1.936,1.085333 0.82133,0.703999 1.27599,1.701331 0.45467,0.997332 0.45467,2.214664 0,0.997332 -0.264,1.789331 -0.24933,0.777333 -0.73333,1.378665 -0.46933,0.586666 -1.144,0.997333 -0.67467,0.410666 -1.51067,0.659999 2.05334,0.542666 3.08,1.818664 1.04133,1.275999 1.04133,3.19733 0,1.451998 -0.55733,2.610664 -0.54267,1.158665 -1.496,1.979997 -0.95333,0.806666 -2.22933,1.246666 -1.26133,0.425333 -2.71333,0.425333 -1.672,0 -2.86,-0.410667 -1.18799,-0.425332 -2.00933,-1.158665 -0.82133,-0.733332 -1.34933,-1.730665 -0.528,-1.011998 -0.89466,-2.18533 l 1.11466,-0.469333 q 0.308,-0.132 0.616,-0.132 0.29333,0 0.51333,0.132 0.23467,0.117333 0.352,0.381333 0.0293,0.05867 0.0587,0.131999 0.0293,0.05867 0.0587,0.132 0.20533,0.425333 0.49866,0.967999 0.29333,0.528 0.792,0.997332 0.49867,0.469333 1.232,0.791999 0.748,0.322667 1.848,0.322667 1.1,0 1.92133,-0.352 0.836,-0.366666 1.37866,-0.938665 0.55734,-0.572 0.836,-1.275999 0.27867,-0.703999 0.27867,-1.393332 0,-0.850665 -0.23467,-1.554665 -0.22,-0.703999 -0.82133,-1.217331 -0.58667,-0.513333 -1.64266,-0.806666 -1.04134,-0.293333 -2.684,-0.293333 v -1.891998 q 1.33466,-0.01467 2.27333,-0.293333 0.95333,-0.278666 1.55466,-0.762666 0.60134,-0.483999 0.86534,-1.158665 0.27866,-0.674666 0.27866,-1.495998 0,-0.909333 -0.29333,-1.583999 -0.27867,-0.674666 -0.77733,-1.114665 -0.49867,-0.44 -1.188,-0.659999 -0.67467,-0.22 -1.46667,-0.22 -0.792,0 -1.46666,0.234666 -0.67467,0.234667 -1.20267,0.66 -0.51333,0.410666 -0.86533,0.997332 -0.352,0.571999 -0.528,1.246665 -0.11733,0.425333 -0.352,0.615999 -0.23466,0.190667 -0.60133,0.190667 -0.0733,0 -0.16133,0 -0.0733,-0.01467 -0.176,-0.02933 l -1.364,-0.234666 q 0.20533,-1.437332 0.792,-2.53733 0.58666,-1.114666 1.48133,-1.862665 0.90933,-0.747999 2.068,-1.129332 1.17333,-0.395999 2.52266,-0.395999 z"
           style="font-family:Lato;-inkscape-font-specification:'Lato, Normal'"
           id="path52481" /></g><g
         aria-label="3"
         transform="rotate(180,-268.68104,-73.945202)"
         id="text12514-6-32"
         style="font-size:10.6667px;line-height:1.25;white-space:pre;shape-inside:url(#rect12516-0-2);display:inline;fill:#ffffff"><path
           d="m -710.63473,55.465444 q 0.48534,0 0.896,0.138668 0.41067,0.138667 0.70401,0.394667 0.29866,0.256001 0.464,0.618669 0.16533,0.362668 0.16533,0.805336 0,0.362668 -0.096,0.650669 -0.0907,0.282667 -0.26667,0.501335 -0.17066,0.213334 -0.416,0.362667 -0.24533,0.149334 -0.54933,0.240001 0.74667,0.197334 1.12,0.661336 0.37867,0.464001 0.37867,1.16267 0,0.528002 -0.20267,0.949336 -0.19733,0.421335 -0.544,0.720003 -0.34667,0.293334 -0.81067,0.453334 -0.45867,0.154667 -0.98667,0.154667 -0.608,0 -1.04,-0.149333 -0.432,-0.154668 -0.73067,-0.421335 -0.29867,-0.266668 -0.49067,-0.629335 -0.192,-0.368002 -0.32533,-0.79467 l 0.40533,-0.170667 q 0.112,-0.048 0.224,-0.048 0.10667,0 0.18667,0.048 0.0853,0.04267 0.128,0.138667 0.0107,0.02133 0.0213,0.048 0.0107,0.02133 0.0213,0.048 0.0747,0.154667 0.18133,0.352001 0.10667,0.192 0.288,0.362668 0.18133,0.170667 0.448,0.288001 0.272,0.117333 0.672,0.117333 0.4,0 0.69867,-0.128 0.304,-0.133334 0.50134,-0.341335 0.20266,-0.208 0.304,-0.464001 0.10133,-0.256001 0.10133,-0.506668 0,-0.309335 -0.0853,-0.565335 -0.08,-0.256001 -0.29867,-0.442669 -0.21333,-0.186667 -0.59733,-0.293334 -0.37867,-0.106667 -0.97601,-0.106667 v -0.688002 q 0.48534,-0.0053 0.82667,-0.106667 0.34667,-0.101334 0.56534,-0.277334 0.21866,-0.176001 0.31466,-0.421335 0.10134,-0.245334 0.10134,-0.544002 0,-0.330667 -0.10667,-0.576001 -0.10133,-0.245334 -0.28267,-0.405335 -0.18133,-0.16 -0.432,-0.240001 -0.24533,-0.08 -0.53333,-0.08 -0.288,0 -0.53334,0.08533 -0.24533,0.08533 -0.43733,0.24 -0.18667,0.149334 -0.31467,0.362668 -0.128,0.208001 -0.192,0.453335 -0.0427,0.154667 -0.128,0.224001 -0.0853,0.06933 -0.21867,0.06933 -0.0267,0 -0.0587,0 -0.0267,-0.0053 -0.064,-0.01067 l -0.496,-0.08533 q 0.0747,-0.522668 0.288,-0.92267 0.21334,-0.405334 0.53867,-0.677335 0.33067,-0.272001 0.752,-0.410668 0.42667,-0.144001 0.91734,-0.144001 z"
           style="font-family:Lato;-inkscape-font-specification:'Lato, Normal'"
           id="path52484" /></g></g></g></svg>
