<?xml version="1.0" encoding="UTF-8" standalone="no"?>
<!-- Created with Inkscape (http://www.inkscape.org/) -->

<svg
   width="62"
   height="88"
   viewBox="0 0 62 88"
   version="1.1"
   id="svg5"
   xml:space="preserve"
   xmlns="http://www.w3.org/2000/svg"
   xmlns:svg="http://www.w3.org/2000/svg"><defs
     id="defs2"><rect
       x="-713.94238"
       y="53.274414"
       width="41.495117"
       height="50.939453"
       id="rect12516" /><rect
       x="-871.94531"
       y="26.289062"
       width="75.125"
       height="108.80469"
       id="rect12460" /><rect
       x="-713.94238"
       y="53.274414"
       width="41.495117"
       height="50.939453"
       id="rect12516-0" /><rect
       x="-871.94531"
       y="26.289062"
       width="75.125"
       height="108.80469"
       id="rect12460-3" /><rect
       x="-713.94238"
       y="53.274414"
       width="41.495117"
       height="50.939453"
       id="rect12516-6" /><rect
       x="-713.94238"
       y="53.274414"
       width="41.495117"
       height="50.939453"
       id="rect12516-0-8" /><rect
       x="-871.94531"
       y="26.289062"
       width="75.125"
       height="108.80469"
       id="rect12460-0" /><rect
       x="-713.94238"
       y="53.274414"
       width="41.495117"
       height="50.939453"
       id="rect12516-5" /><rect
       x="-713.94238"
       y="53.274414"
       width="41.495117"
       height="50.939453"
       id="rect12516-0-1" /><rect
       x="-871.94531"
       y="26.289062"
       width="75.125"
       height="108.80469"
       id="rect12460-5" /><rect
       x="-713.94238"
       y="53.274414"
       width="41.495117"
       height="50.939453"
       id="rect12516-06" /><rect
       x="-713.94238"
       y="53.274414"
       width="41.495117"
       height="50.939453"
       id="rect12516-0-4" /><rect
       x="-871.94531"
       y="26.289062"
       width="75.125"
       height="108.80469"
       id="rect12460-2" /><rect
       x="-713.94238"
       y="53.274414"
       width="41.495117"
       height="50.939453"
       id="rect12516-8" /><rect
       x="-713.94238"
       y="53.274414"
       width="41.495117"
       height="50.939453"
       id="rect12516-0-47" /><rect
       x="-871.94531"
       y="26.289062"
       width="75.125"
       height="108.80469"
       id="rect12460-6" /><rect
       x="-713.94238"
       y="53.274414"
       width="41.495117"
       height="50.939453"
       id="rect12516-2" /><rect
       x="-713.94238"
       y="53.274414"
       width="41.495117"
       height="50.939453"
       id="rect12516-0-9" /><rect
       x="-871.94531"
       y="26.289062"
       width="75.125"
       height="108.80469"
       id="rect12460-1" /><rect
       x="-713.94238"
       y="53.274414"
       width="41.495117"
       height="50.939453"
       id="rect12516-1" /><rect
       x="-713.94238"
       y="53.274414"
       width="41.495117"
       height="50.939453"
       id="rect12516-0-0" /><rect
       x="-871.94531"
       y="26.289062"
       width="75.125"
       height="108.80469"
       id="rect12460-9" /><rect
       x="-713.94238"
       y="53.274414"
       width="41.495117"
       height="50.939453"
       id="rect12516-19" /><rect
       x="-713.94238"
       y="53.274414"
       width="41.495117"
       height="50.939453"
       id="rect12516-0-6" /><rect
       x="-871.94531"
       y="26.289062"
       width="75.125"
       height="108.80469"
       id="rect12460-56" /><rect
       x="-713.94238"
       y="53.274414"
       width="41.495117"
       height="50.939453"
       id="rect12516-64" /><rect
       x="-713.94238"
       y="53.274414"
       width="41.495117"
       height="50.939453"
       id="rect12516-0-00" /><rect
       x="-871.94531"
       y="26.289062"
       width="75.125"
       height="108.80469"
       id="rect12460-7" /><rect
       x="-713.94238"
       y="53.274414"
       width="41.495117"
       height="50.939453"
       id="rect12516-56" /><rect
       x="-713.94238"
       y="53.274414"
       width="41.495117"
       height="50.939453"
       id="rect12516-0-98" /><rect
       x="-871.94531"
       y="26.289062"
       width="75.125"
       height="108.80469"
       id="rect12460-99" /><rect
       x="-713.94238"
       y="53.274414"
       width="41.495117"
       height="50.939453"
       id="rect12516-60" /><rect
       x="-713.94238"
       y="53.274414"
       width="41.495117"
       height="50.939453"
       id="rect12516-0-2" /><rect
       x="-871.94531"
       y="26.289062"
       width="75.125"
       height="108.80469"
       id="rect12460-15" /><rect
       x="-713.94238"
       y="53.274414"
       width="41.495117"
       height="50.939453"
       id="rect12516-9" /><rect
       x="-713.94238"
       y="53.274414"
       width="41.495117"
       height="50.939453"
       id="rect12516-0-91" /><rect
       x="-871.94531"
       y="26.289062"
       width="75.125"
       height="108.80469"
       id="rect12460-58" /><rect
       x="-713.94238"
       y="53.274414"
       width="41.495117"
       height="50.939453"
       id="rect12516-7" /><rect
       x="-713.94238"
       y="53.274414"
       width="41.495117"
       height="50.939453"
       id="rect12516-0-04" /><rect
       x="-871.94531"
       y="26.289062"
       width="75.125"
       height="108.80469"
       id="rect12460-61" /><rect
       x="-713.94238"
       y="53.274414"
       width="41.495117"
       height="50.939453"
       id="rect12516-04" /><rect
       x="-713.94238"
       y="53.274414"
       width="41.495117"
       height="50.939453"
       id="rect12516-0-22" /><rect
       x="-871.94531"
       y="26.289062"
       width="75.125"
       height="108.80469"
       id="rect12460-29" /><rect
       x="-713.94238"
       y="53.274414"
       width="41.495117"
       height="50.939453"
       id="rect12516-02" /><rect
       x="-713.94238"
       y="53.274414"
       width="41.495117"
       height="50.939453"
       id="rect12516-0-83" /><rect
       x="-871.94531"
       y="26.289062"
       width="75.125"
       height="108.80469"
       id="rect12460-62" /><rect
       x="-713.94238"
       y="53.274414"
       width="41.495117"
       height="50.939453"
       id="rect12516-54" /><rect
       x="-713.94238"
       y="53.274414"
       width="41.495117"
       height="50.939453"
       id="rect12516-0-49" /><rect
       x="-871.94531"
       y="26.289062"
       width="75.125"
       height="108.80469"
       id="rect12460-99-7" /><rect
       x="-713.94238"
       y="53.274414"
       width="41.495117"
       height="50.939453"
       id="rect12516-60-3" /><rect
       x="-713.94238"
       y="53.274414"
       width="41.495117"
       height="50.939453"
       id="rect12516-0-2-2" /><rect
       x="-713.94238"
       y="53.274414"
       width="41.495117"
       height="50.939453"
       id="rect12516-60-3-9" /><rect
       x="-713.94238"
       y="53.274414"
       width="41.495117"
       height="50.939453"
       id="rect12516-0-2-2-3" /><rect
       x="-713.94238"
       y="53.274414"
       width="41.495117"
       height="50.939453"
       id="rect12516-60-3-9-9" /><rect
       x="-713.94238"
       y="53.274414"
       width="41.495117"
       height="50.939453"
       id="rect12516-60-3-9-7" /><rect
       x="-713.94238"
       y="53.274414"
       width="41.495117"
       height="50.939453"
       id="rect12516-60-3-9-7-4" /><rect
       x="-871.94531"
       y="26.289062"
       width="75.125"
       height="108.80469"
       id="rect12460-3-0" /><rect
       x="-713.94238"
       y="53.274414"
       width="41.495117"
       height="50.939453"
       id="rect3813" /><rect
       x="-871.94531"
       y="26.289062"
       width="75.125"
       height="108.80469"
       id="rect12460-3-7" /><rect
       x="-713.94238"
       y="53.274414"
       width="41.495117"
       height="50.939453"
       id="rect3813-3" /><rect
       x="-713.94238"
       y="53.274414"
       width="41.495117"
       height="50.939453"
       id="rect12516-6-7" /><rect
       x="-871.94531"
       y="26.289062"
       width="75.125"
       height="108.80469"
       id="rect12460-3-4" /><rect
       x="-713.94238"
       y="53.274414"
       width="41.495117"
       height="50.939453"
       id="rect12516-60-3-9-7-43" /><rect
       x="-713.94238"
       y="53.274414"
       width="41.495117"
       height="50.939453"
       id="rect12516-60-3-9-7-4-1" /></defs><g
     id="layer1"
     transform="translate(2.215018,12.290957)"><g
       id="g3390"
       transform="translate(-332.36123,259.70071)"><path
         id="rect231-35-6"
         style="fill:#ff17ef;stroke-width:10;stroke-linecap:round;stroke-linejoin:round"
         d="m 334.17799,-271.99167 h 53.93644 c 2.23361,0 4.03178,1.79817 4.03178,4.03178 v 79.93645 c 0,2.2336 -1.79817,4.03177 -4.03178,4.03177 h -53.93644 c -2.23361,0 -4.03178,-1.79817 -4.03178,-4.03177 v -79.93645 c 0,-2.23361 1.79817,-4.03178 4.03178,-4.03178 z" /><g
         aria-label="2"
         transform="translate(1224.5555,-270.93471)"
         id="text12458-7"
         style="font-size:29.3333px;line-height:1.25;white-space:pre;shape-inside:url(#rect12460-7);display:inline;fill:#ffffff"><path
           d="m -863.13066,32.317056 q 1.33467,0 2.49333,0.395999 1.15867,0.396 1.99467,1.158665 0.85066,0.748 1.33466,1.833332 0.484,1.085332 0.484,2.463997 0,1.173332 -0.352,2.170664 -0.352,0.997332 -0.95333,1.921331 -0.60133,0.909332 -1.39333,1.774665 -0.77733,0.850665 -1.65733,1.745331 l -5.52933,5.661327 q 0.58667,-0.161333 1.188,-0.249333 0.60133,-0.102667 1.15867,-0.102667 h 7.03999 q 0.42533,0 0.67466,0.249333 0.24934,0.249333 0.24934,0.645333 v 1.583998 h -14.02132 v -0.894665 q 0,-0.278667 0.10267,-0.572 0.11733,-0.293333 0.36666,-0.542666 l 6.73199,-6.761325 q 0.836,-0.850666 1.52534,-1.627999 0.68933,-0.791999 1.17333,-1.583998 0.49866,-0.791999 0.76266,-1.598665 0.264,-0.821332 0.264,-1.745331 0,-0.923999 -0.29333,-1.613331 -0.29333,-0.704 -0.80667,-1.158666 -0.51333,-0.454666 -1.20266,-0.674666 -0.68933,-0.234666 -1.48133,-0.234666 -0.792,0 -1.46667,0.234666 -0.67466,0.234667 -1.20266,0.66 -0.51334,0.410666 -0.88,0.982665 -0.352,0.572 -0.49867,1.261332 -0.11733,0.425333 -0.352,0.615999 -0.23466,0.190667 -0.616,0.190667 -0.0733,0 -0.16133,0 -0.0733,-0.01467 -0.176,-0.02933 l -1.364,-0.234666 q 0.20534,-1.437332 0.792,-2.53733 0.58667,-1.114666 1.48133,-1.862665 0.90933,-0.747999 2.068,-1.129332 1.17333,-0.395999 2.52266,-0.395999 z"
           style="font-family:Lato;-inkscape-font-specification:'Lato, Normal'"
           id="path52468" /></g><g
         aria-label="2"
         transform="translate(1048.974,-319.36397)"
         id="text12514-28"
         style="font-size:10.6667px;line-height:1.25;white-space:pre;shape-inside:url(#rect12516-56);display:inline;fill:#ffffff"><path
           d="m -710.73606,55.465444 q 0.48533,0 0.90667,0.144001 0.42133,0.144 0.72533,0.421335 0.30934,0.272 0.48534,0.666668 0.176,0.394668 0.176,0.896003 0,0.426668 -0.128,0.789336 -0.128,0.362668 -0.34667,0.698669 -0.21867,0.330668 -0.50667,0.645335 -0.28267,0.309335 -0.60267,0.634669 l -2.01067,2.058673 q 0.21333,-0.05867 0.432,-0.09067 0.21867,-0.03733 0.42134,-0.03733 h 2.56 q 0.15467,0 0.24534,0.09067 0.0907,0.09067 0.0907,0.234667 v 0.576002 h -5.09868 v -0.325335 q 0,-0.101333 0.0373,-0.208 0.0427,-0.106667 0.13333,-0.197334 l 2.44801,-2.458675 q 0.304,-0.309334 0.55467,-0.592001 0.25066,-0.288001 0.42666,-0.576002 0.18134,-0.288001 0.27734,-0.581335 0.096,-0.298668 0.096,-0.634669 0,-0.336001 -0.10667,-0.586669 -0.10667,-0.256 -0.29333,-0.421334 -0.18667,-0.165334 -0.43734,-0.245334 -0.25067,-0.08533 -0.53867,-0.08533 -0.288,0 -0.53333,0.08533 -0.24534,0.08533 -0.43734,0.24 -0.18666,0.149334 -0.32,0.357335 -0.128,0.208 -0.18133,0.458668 -0.0427,0.154667 -0.128,0.224001 -0.0853,0.06933 -0.224,0.06933 -0.0267,0 -0.0587,0 -0.0267,-0.0053 -0.064,-0.01067 l -0.496,-0.08533 q 0.0747,-0.522668 0.288,-0.92267 0.21333,-0.405334 0.53867,-0.677335 0.33067,-0.272001 0.752,-0.410668 0.42667,-0.144001 0.91734,-0.144001 z"
           style="font-family:Lato;-inkscape-font-specification:'Lato, Normal'"
           id="path52471" /></g><g
         aria-label="2
"
         transform="rotate(180,-163.34079,-68.309675)"
         id="text12514-6-2"
         style="font-size:10.6667px;line-height:1.25;white-space:pre;shape-inside:url(#rect12516-0-98);display:inline;fill:#ffffff"><path
           d="m -710.73606,55.465444 q 0.48533,0 0.90667,0.144001 0.42133,0.144 0.72533,0.421335 0.30934,0.272 0.48534,0.666668 0.176,0.394668 0.176,0.896003 0,0.426668 -0.128,0.789336 -0.128,0.362668 -0.34667,0.698669 -0.21867,0.330668 -0.50667,0.645335 -0.28267,0.309335 -0.60267,0.634669 l -2.01067,2.058673 q 0.21333,-0.05867 0.432,-0.09067 0.21867,-0.03733 0.42134,-0.03733 h 2.56 q 0.15467,0 0.24534,0.09067 0.0907,0.09067 0.0907,0.234667 v 0.576002 h -5.09868 v -0.325335 q 0,-0.101333 0.0373,-0.208 0.0427,-0.106667 0.13333,-0.197334 l 2.44801,-2.458675 q 0.304,-0.309334 0.55467,-0.592001 0.25066,-0.288001 0.42666,-0.576002 0.18134,-0.288001 0.27734,-0.581335 0.096,-0.298668 0.096,-0.634669 0,-0.336001 -0.10667,-0.586669 -0.10667,-0.256 -0.29333,-0.421334 -0.18667,-0.165334 -0.43734,-0.245334 -0.25067,-0.08533 -0.53867,-0.08533 -0.288,0 -0.53333,0.08533 -0.24534,0.08533 -0.43734,0.24 -0.18666,0.149334 -0.32,0.357335 -0.128,0.208 -0.18133,0.458668 -0.0427,0.154667 -0.128,0.224001 -0.0853,0.06933 -0.224,0.06933 -0.0267,0 -0.0587,0 -0.0267,-0.0053 -0.064,-0.01067 l -0.496,-0.08533 q 0.0747,-0.522668 0.288,-0.92267 0.21333,-0.405334 0.53867,-0.677335 0.33067,-0.272001 0.752,-0.410668 0.42667,-0.144001 0.91734,-0.144001 z"
           style="font-family:Lato;-inkscape-font-specification:'Lato, Normal'"
           id="path52474" /></g></g></g></svg>
