<?xml version="1.0" encoding="UTF-8" standalone="no"?>
<!-- Created with Inkscape (http://www.inkscape.org/) -->

<svg
   width="62"
   height="88"
   viewBox="0 0 62 88"
   version="1.1"
   id="svg5"
   xml:space="preserve"
   xmlns="http://www.w3.org/2000/svg"
   xmlns:svg="http://www.w3.org/2000/svg"><defs
     id="defs2"><rect
       x="-713.94238"
       y="53.274414"
       width="41.495117"
       height="50.939453"
       id="rect12516" /><rect
       x="-871.94531"
       y="26.289062"
       width="75.125"
       height="108.80469"
       id="rect12460" /><rect
       x="-713.94238"
       y="53.274414"
       width="41.495117"
       height="50.939453"
       id="rect12516-0" /><rect
       x="-871.94531"
       y="26.289062"
       width="75.125"
       height="108.80469"
       id="rect12460-3" /><rect
       x="-713.94238"
       y="53.274414"
       width="41.495117"
       height="50.939453"
       id="rect12516-6" /><rect
       x="-713.94238"
       y="53.274414"
       width="41.495117"
       height="50.939453"
       id="rect12516-0-8" /><rect
       x="-871.94531"
       y="26.289062"
       width="75.125"
       height="108.80469"
       id="rect12460-0" /><rect
       x="-713.94238"
       y="53.274414"
       width="41.495117"
       height="50.939453"
       id="rect12516-5" /><rect
       x="-713.94238"
       y="53.274414"
       width="41.495117"
       height="50.939453"
       id="rect12516-0-1" /><rect
       x="-871.94531"
       y="26.289062"
       width="75.125"
       height="108.80469"
       id="rect12460-5" /><rect
       x="-713.94238"
       y="53.274414"
       width="41.495117"
       height="50.939453"
       id="rect12516-06" /><rect
       x="-713.94238"
       y="53.274414"
       width="41.495117"
       height="50.939453"
       id="rect12516-0-4" /><rect
       x="-871.94531"
       y="26.289062"
       width="75.125"
       height="108.80469"
       id="rect12460-2" /><rect
       x="-713.94238"
       y="53.274414"
       width="41.495117"
       height="50.939453"
       id="rect12516-8" /><rect
       x="-713.94238"
       y="53.274414"
       width="41.495117"
       height="50.939453"
       id="rect12516-0-47" /><rect
       x="-871.94531"
       y="26.289062"
       width="75.125"
       height="108.80469"
       id="rect12460-6" /><rect
       x="-713.94238"
       y="53.274414"
       width="41.495117"
       height="50.939453"
       id="rect12516-2" /><rect
       x="-713.94238"
       y="53.274414"
       width="41.495117"
       height="50.939453"
       id="rect12516-0-9" /><rect
       x="-871.94531"
       y="26.289062"
       width="75.125"
       height="108.80469"
       id="rect12460-1" /><rect
       x="-713.94238"
       y="53.274414"
       width="41.495117"
       height="50.939453"
       id="rect12516-1" /><rect
       x="-713.94238"
       y="53.274414"
       width="41.495117"
       height="50.939453"
       id="rect12516-0-0" /><rect
       x="-871.94531"
       y="26.289062"
       width="75.125"
       height="108.80469"
       id="rect12460-9" /><rect
       x="-713.94238"
       y="53.274414"
       width="41.495117"
       height="50.939453"
       id="rect12516-19" /><rect
       x="-713.94238"
       y="53.274414"
       width="41.495117"
       height="50.939453"
       id="rect12516-0-6" /><rect
       x="-871.94531"
       y="26.289062"
       width="75.125"
       height="108.80469"
       id="rect12460-56" /><rect
       x="-713.94238"
       y="53.274414"
       width="41.495117"
       height="50.939453"
       id="rect12516-64" /><rect
       x="-713.94238"
       y="53.274414"
       width="41.495117"
       height="50.939453"
       id="rect12516-0-00" /><rect
       x="-871.94531"
       y="26.289062"
       width="75.125"
       height="108.80469"
       id="rect12460-7" /><rect
       x="-713.94238"
       y="53.274414"
       width="41.495117"
       height="50.939453"
       id="rect12516-56" /><rect
       x="-713.94238"
       y="53.274414"
       width="41.495117"
       height="50.939453"
       id="rect12516-0-98" /><rect
       x="-871.94531"
       y="26.289062"
       width="75.125"
       height="108.80469"
       id="rect12460-99" /><rect
       x="-713.94238"
       y="53.274414"
       width="41.495117"
       height="50.939453"
       id="rect12516-60" /><rect
       x="-713.94238"
       y="53.274414"
       width="41.495117"
       height="50.939453"
       id="rect12516-0-2" /><rect
       x="-871.94531"
       y="26.289062"
       width="75.125"
       height="108.80469"
       id="rect12460-15" /><rect
       x="-713.94238"
       y="53.274414"
       width="41.495117"
       height="50.939453"
       id="rect12516-9" /><rect
       x="-713.94238"
       y="53.274414"
       width="41.495117"
       height="50.939453"
       id="rect12516-0-91" /><rect
       x="-871.94531"
       y="26.289062"
       width="75.125"
       height="108.80469"
       id="rect12460-58" /><rect
       x="-713.94238"
       y="53.274414"
       width="41.495117"
       height="50.939453"
       id="rect12516-7" /><rect
       x="-713.94238"
       y="53.274414"
       width="41.495117"
       height="50.939453"
       id="rect12516-0-04" /><rect
       x="-871.94531"
       y="26.289062"
       width="75.125"
       height="108.80469"
       id="rect12460-61" /><rect
       x="-713.94238"
       y="53.274414"
       width="41.495117"
       height="50.939453"
       id="rect12516-04" /><rect
       x="-713.94238"
       y="53.274414"
       width="41.495117"
       height="50.939453"
       id="rect12516-0-22" /><rect
       x="-871.94531"
       y="26.289062"
       width="75.125"
       height="108.80469"
       id="rect12460-29" /><rect
       x="-713.94238"
       y="53.274414"
       width="41.495117"
       height="50.939453"
       id="rect12516-02" /><rect
       x="-713.94238"
       y="53.274414"
       width="41.495117"
       height="50.939453"
       id="rect12516-0-83" /><rect
       x="-871.94531"
       y="26.289062"
       width="75.125"
       height="108.80469"
       id="rect12460-62" /><rect
       x="-713.94238"
       y="53.274414"
       width="41.495117"
       height="50.939453"
       id="rect12516-54" /><rect
       x="-713.94238"
       y="53.274414"
       width="41.495117"
       height="50.939453"
       id="rect12516-0-49" /><rect
       x="-871.94531"
       y="26.289062"
       width="75.125"
       height="108.80469"
       id="rect12460-99-7" /><rect
       x="-713.94238"
       y="53.274414"
       width="41.495117"
       height="50.939453"
       id="rect12516-60-3" /><rect
       x="-713.94238"
       y="53.274414"
       width="41.495117"
       height="50.939453"
       id="rect12516-0-2-2" /><rect
       x="-713.94238"
       y="53.274414"
       width="41.495117"
       height="50.939453"
       id="rect12516-60-3-9" /><rect
       x="-713.94238"
       y="53.274414"
       width="41.495117"
       height="50.939453"
       id="rect12516-0-2-2-3" /><rect
       x="-713.94238"
       y="53.274414"
       width="41.495117"
       height="50.939453"
       id="rect12516-60-3-9-9" /><rect
       x="-713.94238"
       y="53.274414"
       width="41.495117"
       height="50.939453"
       id="rect12516-60-3-9-7" /><rect
       x="-713.94238"
       y="53.274414"
       width="41.495117"
       height="50.939453"
       id="rect12516-60-3-9-7-4" /><rect
       x="-871.94531"
       y="26.289062"
       width="75.125"
       height="108.80469"
       id="rect12460-3-0" /><rect
       x="-713.94238"
       y="53.274414"
       width="41.495117"
       height="50.939453"
       id="rect3813" /><rect
       x="-871.94531"
       y="26.289062"
       width="75.125"
       height="108.80469"
       id="rect12460-3-7" /><rect
       x="-713.94238"
       y="53.274414"
       width="41.495117"
       height="50.939453"
       id="rect3813-3" /><rect
       x="-713.94238"
       y="53.274414"
       width="41.495117"
       height="50.939453"
       id="rect12516-6-7" /><rect
       x="-871.94531"
       y="26.289062"
       width="75.125"
       height="108.80469"
       id="rect12460-3-4" /><rect
       x="-713.94238"
       y="53.274414"
       width="41.495117"
       height="50.939453"
       id="rect12516-60-3-9-7-43" /><rect
       x="-713.94238"
       y="53.274414"
       width="41.495117"
       height="50.939453"
       id="rect12516-60-3-9-7-4-1" /></defs><g
     id="layer1"
     transform="translate(2.215018,12.290957)"><g
       id="g2697"
       transform="translate(-497.82421,381.32308)"><path
         id="rect231-35-1"
         style="fill:#ff17ef;stroke-width:10;stroke-linecap:round;stroke-linejoin:round"
         d="m 499.64097,-393.61404 h 53.93645 c 2.2336,0 4.03177,1.79817 4.03177,4.03177 v 79.93645 c 0,2.2336 -1.79817,4.03178 -4.03177,4.03178 h -53.93645 c -2.23361,0 -4.03178,-1.79818 -4.03178,-4.03178 v -79.93645 c 0,-2.2336 1.79817,-4.03177 4.03178,-4.03177 z" /><g
         aria-label="0"
         transform="translate(1390.0478,-392.66709)"
         id="text12458-4"
         style="font-size:29.3333px;line-height:1.25;white-space:pre;shape-inside:url(#rect12460-56);display:inline;fill:#ffffff"><path
           d="m -855.812,43.06771 q 0,2.75733 -0.60133,4.781328 -0.58667,2.009331 -1.61333,3.329329 -1.02667,1.319999 -2.43467,1.965331 -1.39333,0.645333 -2.99199,0.645333 -1.61333,0 -3.00667,-0.645333 -1.37866,-0.645332 -2.40533,-1.965331 -1.02666,-1.319998 -1.61333,-3.329329 -0.58666,-2.023998 -0.58666,-4.781328 0,-2.75733 0.58666,-4.781328 0.58667,-2.023998 1.61333,-3.343996 1.02667,-1.334665 2.40533,-1.979998 1.39334,-0.645332 3.00667,-0.645332 1.59866,0 2.99199,0.645332 1.408,0.645333 2.43467,1.979998 1.02666,1.319998 1.61333,3.343996 0.60133,2.023998 0.60133,4.781328 z m -2.71333,0 q 0,-2.405331 -0.41066,-4.033329 -0.396,-1.642665 -1.08534,-2.639997 -0.67466,-0.997332 -1.56933,-1.422665 -0.89466,-0.439999 -1.86266,-0.439999 -0.968,0 -1.86267,0.439999 -0.89466,0.425333 -1.56933,1.422665 -0.67466,0.997332 -1.08533,2.639997 -0.396,1.627998 -0.396,4.033329 0,2.40533 0.396,4.033329 0.41067,1.627998 1.08533,2.62533 0.67467,0.997332 1.56933,1.437332 0.89467,0.425332 1.86267,0.425332 0.968,0 1.86266,-0.425332 0.89467,-0.44 1.56933,-1.437332 0.68934,-0.997332 1.08534,-2.62533 0.41066,-1.627999 0.41066,-4.033329 z"
           style="font-family:Lato;-inkscape-font-specification:'Lato, Normal'"
           id="path52524" /></g><g
         aria-label="0"
         transform="translate(1214.4476,-441.02635)"
         id="text12514-62"
         style="font-size:10.6667px;line-height:1.25;white-space:pre;shape-inside:url(#rect12516-64);display:inline;fill:#ffffff"><path
           d="m -708.07472,59.37479 q 0,1.00267 -0.21867,1.738672 -0.21333,0.730669 -0.58667,1.210671 -0.37333,0.480001 -0.88533,0.714669 -0.50667,0.234667 -1.08801,0.234667 -0.58667,0 -1.09333,-0.234667 -0.50134,-0.234668 -0.87467,-0.714669 -0.37334,-0.480002 -0.58667,-1.210671 -0.21334,-0.736002 -0.21334,-1.738672 0,-1.00267 0.21334,-1.738672 0.21333,-0.736002 0.58667,-1.216004 0.37333,-0.485335 0.87467,-0.720002 0.50666,-0.234668 1.09333,-0.234668 0.58134,0 1.08801,0.234668 0.512,0.234667 0.88533,0.720002 0.37334,0.480002 0.58667,1.216004 0.21867,0.736002 0.21867,1.738672 z m -0.98667,0 q 0,-0.874669 -0.14933,-1.466671 -0.14401,-0.597335 -0.39467,-0.960003 -0.24534,-0.362668 -0.57067,-0.517335 -0.32534,-0.160001 -0.67734,-0.160001 -0.352,0 -0.67733,0.160001 -0.32534,0.154667 -0.57067,0.517335 -0.24533,0.362668 -0.39467,0.960003 -0.144,0.592002 -0.144,1.466671 0,0.87467 0.144,1.466671 0.14934,0.592002 0.39467,0.95467 0.24533,0.362668 0.57067,0.522668 0.32533,0.154668 0.67733,0.154668 0.352,0 0.67734,-0.154668 0.32533,-0.16 0.57067,-0.522668 0.25066,-0.362668 0.39467,-0.95467 0.14933,-0.592001 0.14933,-1.466671 z"
           style="font-family:Lato;-inkscape-font-specification:'Lato, Normal'"
           id="path52527" /></g><g
         aria-label="0"
         transform="rotate(180,-80.614629,-129.10086)"
         id="text12514-6-6"
         style="font-size:10.6667px;line-height:1.25;white-space:pre;shape-inside:url(#rect12516-0-00);display:inline;fill:#ffffff"><path
           d="m -708.07472,59.37479 q 0,1.00267 -0.21867,1.738672 -0.21333,0.730669 -0.58667,1.210671 -0.37333,0.480001 -0.88533,0.714669 -0.50667,0.234667 -1.08801,0.234667 -0.58667,0 -1.09333,-0.234667 -0.50134,-0.234668 -0.87467,-0.714669 -0.37334,-0.480002 -0.58667,-1.210671 -0.21334,-0.736002 -0.21334,-1.738672 0,-1.00267 0.21334,-1.738672 0.21333,-0.736002 0.58667,-1.216004 0.37333,-0.485335 0.87467,-0.720002 0.50666,-0.234668 1.09333,-0.234668 0.58134,0 1.08801,0.234668 0.512,0.234667 0.88533,0.720002 0.37334,0.480002 0.58667,1.216004 0.21867,0.736002 0.21867,1.738672 z m -0.98667,0 q 0,-0.874669 -0.14933,-1.466671 -0.14401,-0.597335 -0.39467,-0.960003 -0.24534,-0.362668 -0.57067,-0.517335 -0.32534,-0.160001 -0.67734,-0.160001 -0.352,0 -0.67733,0.160001 -0.32534,0.154667 -0.57067,0.517335 -0.24533,0.362668 -0.39467,0.960003 -0.144,0.592002 -0.144,1.466671 0,0.87467 0.144,1.466671 0.14934,0.592002 0.39467,0.95467 0.24533,0.362668 0.57067,0.522668 0.32533,0.154668 0.67733,0.154668 0.352,0 0.67734,-0.154668 0.32533,-0.16 0.57067,-0.522668 0.25066,-0.362668 0.39467,-0.95467 0.14933,-0.592001 0.14933,-1.466671 z"
           style="font-family:Lato;-inkscape-font-specification:'Lato, Normal'"
           id="path52530" /></g></g></g></svg>
